<svg width="88" height="88" viewBox="0 0 88 88" fill="none" xmlns="http://www.w3.org/2000/svg">
<rect width="88" height="88" rx="8" fill="white"/>
<path d="M31.4883 23.0059C31.5014 23.0064 31.5144 23.0072 31.5273 23.0078L31.5547 23.0088C31.5754 23.0098 31.5958 23.0115 31.6162 23.0127C31.6867 23.0168 31.7554 23.0212 31.8223 23.0273C31.862 23.031 31.901 23.0357 31.9395 23.04C31.9996 23.0468 32.0581 23.055 32.1152 23.0635C32.1422 23.0675 32.169 23.0708 32.1953 23.0752C32.2595 23.0859 32.3215 23.0984 32.3818 23.1113C32.4078 23.1169 32.4337 23.122 32.459 23.1279C32.615 23.1648 32.7579 23.2099 32.8896 23.2617C32.9156 23.2719 32.9407 23.2832 32.9658 23.2939C33.0011 23.3091 33.0357 23.3245 33.0693 23.3408C33.1005 23.3559 33.1313 23.3707 33.1611 23.3867C33.1859 23.4 33.2096 23.4148 33.2334 23.4287C33.348 23.4957 33.4516 23.5701 33.5469 23.6514C33.5679 23.6693 33.5892 23.6865 33.6094 23.7051C33.6321 23.7261 33.6541 23.7477 33.6758 23.7695C33.6953 23.7891 33.7147 23.8088 33.7334 23.8291C33.7578 23.8556 33.7816 23.8826 33.8047 23.9102C33.8178 23.9258 33.8301 23.942 33.8428 23.958C33.8677 23.9894 33.8925 24.021 33.916 24.0537C33.9808 24.1437 34.041 24.2382 34.0967 24.3379L34.0947 24.3359C34.1998 24.5249 34.2906 24.7308 34.374 24.9521L37.6289 33.5703L40.5107 25.2256C41.0087 23.9007 42.2678 23.0172 43.6826 23H55.0566L55.3652 23.0059C55.3783 23.0064 55.3913 23.0072 55.4043 23.0078L55.4316 23.0088C55.4523 23.0098 55.4728 23.0115 55.4932 23.0127C55.5634 23.0168 55.6317 23.0212 55.6982 23.0273C55.7393 23.0311 55.7796 23.0355 55.8193 23.04C55.8757 23.0465 55.9306 23.0546 55.9844 23.0625C56.015 23.067 56.0454 23.0712 56.0752 23.0762C56.1335 23.086 56.19 23.0977 56.2451 23.1094C56.2768 23.116 56.3082 23.1216 56.3389 23.1289C56.414 23.1468 56.4863 23.1661 56.5557 23.1875C56.5762 23.1938 56.5962 23.2014 56.6162 23.208C56.6637 23.2237 56.7101 23.2394 56.7549 23.2568C56.793 23.2716 56.8299 23.2877 56.8662 23.3037C56.8868 23.3128 56.9068 23.3226 56.9268 23.332C56.97 23.3525 57.0121 23.3733 57.0527 23.3955C57.0617 23.4004 57.0702 23.4061 57.0791 23.4111C57.2179 23.4894 57.3417 23.5773 57.4531 23.6758C57.4613 23.683 57.4695 23.69 57.4775 23.6973C57.5098 23.7267 57.5401 23.7579 57.5703 23.7891C57.5801 23.7991 57.59 23.8091 57.5996 23.8193C57.6285 23.8502 57.6565 23.8816 57.6836 23.9141C57.6958 23.9286 57.7079 23.9432 57.7197 23.958C57.7427 23.9868 57.7654 24.0159 57.7871 24.0459C57.8541 24.1379 57.9164 24.2346 57.9736 24.3369C57.9728 24.3361 57.9715 24.3358 57.9707 24.335C58.0764 24.5243 58.1688 24.7302 58.2529 24.9521L61.4678 33.6416L64.3672 25.2256C64.8682 23.9016 66.128 23.0191 67.5439 23H81.375L67.3398 63.7197C66.9294 64.9085 65.8364 65.7094 64.6016 65.7666H50.4023L53.7549 56.0322L49.7646 45.4658L46.8867 53.8105C46.3857 55.1355 45.1249 56.0191 43.709 56.0361L32.2959 56.0371C32.2361 56.0368 32.1776 56.0328 32.1201 56.0312C32.0798 56.0302 32.0401 56.03 32.001 56.0283C31.9346 56.0254 31.8699 56.0212 31.8066 56.0166C31.7683 56.0138 31.7306 56.0103 31.6934 56.0068C31.6326 56.0012 31.5734 55.9955 31.5156 55.9883C31.4778 55.9835 31.4409 55.9771 31.4043 55.9717C31.3462 55.963 31.2895 55.9547 31.2344 55.9443C31.2209 55.9418 31.2077 55.9382 31.1943 55.9355C31.0629 55.9094 30.9403 55.8788 30.8252 55.8428C30.8121 55.8387 30.799 55.8353 30.7861 55.8311C30.747 55.8182 30.7092 55.804 30.6719 55.79C30.6319 55.7751 30.5927 55.7604 30.5547 55.7441C30.5195 55.7291 30.4857 55.7124 30.4521 55.6963C30.4303 55.6858 30.4089 55.6751 30.3877 55.6641C30.3442 55.6415 30.3015 55.6192 30.2607 55.5947C30.2453 55.5855 30.2308 55.575 30.2158 55.5654C29.6808 55.2263 29.3825 54.7195 29.1445 54.0859L25.8857 45.46C24.2445 50.2156 22.9574 53.9478 22.9414 53.9941C22.5318 55.1762 21.4464 55.9749 20.2188 56.0371H6L16.6318 25.2256C17.1308 23.9007 18.3898 23.0171 19.8057 23H31.1797L31.4883 23.0059Z" fill="#007457"/>
</svg>
