<?xml version="1.0" encoding="UTF-8"?>
<!-- Generator: Adobe Illustrator 16.0.0, SVG Export Plug-In . SVG Version: 6.00 Build 0)  -->
<!DOCTYPE svg PUBLIC "-//W3C//DTD SVG 1.1//EN" "http://www.w3.org/Graphics/SVG/1.1/DTD/svg11.dtd">
<svg version="1.1" id="图层_1" xmlns="http://www.w3.org/2000/svg" xmlns:xlink="http://www.w3.org/1999/xlink" x="0px" y="0px" width="270.75px" height="65.5px" viewBox="0 0 270.75 65.5" enable-background="new 0 0 270.75 65.5" xml:space="preserve">
<g id="编组-2" transform="translate(18.182)">
	<path id="Clip_2-2" fill="none" d="M-3.13,13.816h25.964v33.037H-3.13V13.816z"/>
	<g>
		<g>
			<defs>
				<rect id="SVGID_1_" x="-3.13" y="13.816" width="25.964" height="33.037"/>
			</defs>
			<clipPath id="SVGID_2_">
				<use xlink:href="#SVGID_1_" overflow="visible"/>
			</clipPath>
			<g id="编组-3" clip-path="url(#SVGID_2_)">
				<path id="Fill_1" fill="#007457" d="M12.567,15.768c-0.452-1.2-1.109-1.952-3.194-1.952H-0.851l-2.279,3.372L7.338,44.901l0,0      c0.45,1.198,1.109,1.953,3.193,1.953h10.63l1.674-3.905L12.567,15.768z"/>
			</g>
		</g>
	</g>
</g>
<g id="编组-4" transform="translate(53.6)">
	<path id="Clip_4-2" fill="none" d="M-13.852,13.816h25.8v33.037h-25.8V13.816z"/>
	<g>
		<g>
			<defs>
				<rect id="SVGID_3_" x="-13.852" y="13.816" width="25.8" height="33.037"/>
			</defs>
			<clipPath id="SVGID_4_">
				<use xlink:href="#SVGID_3_" overflow="visible"/>
			</clipPath>
			<g id="编组-5" clip-path="url(#SVGID_4_)">
				<path id="Fill_3" fill="#007457" d="M1.028,15.768L1.028,15.768c-0.455-1.2-1.111-1.952-3.196-1.952h-7.344l-4.34,5.542      l10.384,27.495l15.416-1.569L1.028,15.768z"/>
			</g>
		</g>
	</g>
</g>
<g id="编组-6" transform="translate(33.595)">
	<path id="Clip_6-2" fill="none" d="M-7.796,13.816h28.55v33.037h-28.55V13.816z"/>
	<g>
		<g>
			<defs>
				<rect id="SVGID_5_" x="-7.796" y="13.816" width="28.55" height="33.037"/>
			</defs>
			<clipPath id="SVGID_6_">
				<use xlink:href="#SVGID_5_" overflow="visible"/>
			</clipPath>
			<g id="编组-7" clip-path="url(#SVGID_6_)">
				<path id="Fill_5" fill="#007457" d="M17.837,13.816H6.463c-1.415,0.017-2.674,0.9-3.172,2.225l-9.762,28.275      c-0.424,1.237-1.046,1.473-1.325,1.197c0.462,0.838,1.214,1.339,2.914,1.339H6.489c1.416-0.017,2.677-0.901,3.178-2.226      l9.754-28.278c0.428-1.241,1.046-1.473,1.333-1.196C20.287,14.318,19.537,13.816,17.837,13.816"/>
			</g>
		</g>
	</g>
</g>
<g id="编组-8" transform="translate(0.001)">
	<path id="Clip_8-2" fill="none" d="M2.374,13.816h28.1v33.037h-28.1V13.816z"/>
	<g>
		<g>
			<defs>
				<rect id="SVGID_7_" x="2.374" y="13.816" width="28.1" height="33.037"/>
			</defs>
			<clipPath id="SVGID_8_">
				<use xlink:href="#SVGID_7_" overflow="visible"/>
			</clipPath>
			<g id="编组-9" clip-path="url(#SVGID_8_)">
				<path id="Fill_7" fill="#007457" d="M27.554,13.816H16.18c-1.416,0.017-2.675,0.9-3.174,2.225L2.374,46.853h13.87      c1.367,0.087,2.623-0.75,3.071-2.043c0,0,8.973-25.998,9.823-28.461c0.429-1.241,1.046-1.473,1.333-1.196      C30.005,14.318,29.258,13.816,27.554,13.816"/>
			</g>
		</g>
	</g>
</g>
<g id="编组-10" transform="translate(63.681)">
	<path id="Clip_10-2" fill="none" d="M-16.904,13.816h30.973v42.766h-30.973V13.816z"/>
	<g>
		<g>
			<defs>
				<rect id="SVGID_9_" x="-16.904" y="13.816" width="30.973" height="42.766"/>
			</defs>
			<clipPath id="SVGID_10_">
				<use xlink:href="#SVGID_9_" overflow="visible"/>
			</clipPath>
			<g id="编组-11" clip-path="url(#SVGID_10_)">
				<path id="Fill_9" fill="#007457" d="M14.069,13.816H0.238c-1.416,0.019-2.676,0.901-3.177,2.225l-13.965,40.541h13.866      c1.368,0.086,2.625-0.752,3.072-2.047L14.069,13.816z"/>
			</g>
		</g>
	</g>
</g>
<path id="Clip_18-2" fill="none" d="M0,61.334h267.227V0H0V61.334z"/>
<g>
	<g>
		<g id="蒙版组_1">
			<path id="Fill_23" fill="#231916" d="M127.418,13.805h-7.715c-1.196,0.017-2.26,0.762-2.685,1.879l-4.279,12.419l-4.285-12.419     c-0.427-1.119-1.494-1.864-2.69-1.879h-7.711c-1.166-0.009-2.194,0.759-2.513,1.879L87.478,46.75h8.539     c1.13,0.095,2.165-0.637,2.454-1.732c0,0,2.072-7.993,4.043-15.616c2.635,7.623,5.388,15.616,5.388,15.616     c0.384,1.096,1.448,1.806,2.608,1.732h4.456c1.157,0.075,2.223-0.637,2.603-1.732c0,0,2.76-7.993,5.387-15.616     c1.984,7.623,4.048,15.616,4.048,15.616c0.29,1.098,1.327,1.829,2.459,1.732h8.527l-8.046-31.066     C129.618,14.563,128.587,13.794,127.418,13.805"/>
			<path id="Fill_24" fill="#231916" d="M215.738,34.467h14.192v-8.335h-14.192v-3.697h16.609v-8.617h-21.055l-12.452-0.009v0.009     c-1.346-0.14-2.682,0.333-3.64,1.286l-10.516,10.82l-10.037-10.82c-0.961-0.955-2.301-1.427-3.646-1.286h-27.954     c-1.357-0.113-2.549,0.896-2.663,2.252c-0.011,0.132-0.011,0.265-0.001,0.396v27.628c-0.105,1.361,0.91,2.55,2.27,2.657     c0.132,0.01,0.264,0.01,0.395-0.002h25.96v-8.441H151.9v-3.842h13.689v-8.335H151.9v-3.697h15.354l11.327,11.395V46.75h11.825     V33.829l13.82-13.191v23.457c-0.112,1.354,0.895,2.542,2.248,2.655c0.133,0.012,0.269,0.012,0.403,0h25.975v-8.441h-17.113     L215.738,34.467L215.738,34.467z"/>
			<path id="Fill_25" fill="#231916" d="M262.079,33.916c4.175-1.756,6.749-4.782,6.749-9.497c0-5.327-3.182-10.602-12.527-10.602     h-18.216c-1.354-0.109-2.541,0.898-2.65,2.251c-0.011,0.132-0.011,0.266,0,0.397V46.75h10.499V22.454h5.655     c4.674,0,6.519,1.253,6.519,3.297c0,1.154-0.868,3.342-5.663,3.342h-3.854l8.796,15.899c0.759,1.521,1.031,1.758,3.501,1.758     h8.594L262.079,33.916z"/>
		</g>
	</g>
</g>
</svg>