<svg width="200" height="200" viewBox="0 0 200 200" fill="none" xmlns="http://www.w3.org/2000/svg">
<path d="M107.33 14.8377C105.492 13.7017 104.242 12.3607 104.553 11.8577C105.611 10.1457 107.813 10.9367 112.66 14.7717C122.994 22.9467 128.469 32.0367 133.545 49.4427L136.169 58.4427L135.688 66.0657L135.207 73.6877L137.16 78.0517C138.235 80.4517 142.901 87.3827 147.531 93.4547C152.16 99.5267 156.458 105.96 157.083 107.75L158.217 111.005L157.043 113.84C155.853 116.712 154.504 117.657 147.75 120.347C143.59 122.004 143.449 122.355 145.5 125.943C147.425 129.31 147.356 132.892 145.324 135.138L143.647 136.99L144.824 138.167C146.583 139.926 146.249 142.811 143.949 145.735L141.897 148.343L142.563 155.972L143.228 163.601L141.658 166.637C140.795 168.307 138.381 170.521 136.294 171.558L132.5 173.443L118.5 173.188L104.5 172.932L101.225 174.938C97.819 177.024 96.165 179.994 95.095 185.943C94.71 188.087 93.891 189.443 92.983 189.443H91.5L91.814 185.528C92.249 180.106 95.47 174.237 99.29 171.908L102.5 169.95L117.3 169.947L132.099 169.943L135.093 168.395C139.159 166.293 140.084 163.233 139.334 154.367L138.698 146.843L140.759 144.056C143.006 141.016 142.71 139.88 139.185 138.023L136.871 136.804L138.058 135.373C138.711 134.587 139.81 133.943 140.5 133.943C141.19 133.943 142.288 133.3 142.94 132.515L144.126 131.087L142.563 128.064C140.556 124.184 140.571 120.544 142.601 118.859C143.482 118.128 146.294 116.836 148.851 115.987L153.5 114.443L153.821 111.096L154.141 107.749L145.527 96.3937C140.789 90.1487 135.757 82.9707 134.344 80.4417L131.774 75.8447L132.457 68.5577L133.14 61.2707L131.512 54.8567C126.598 35.4967 118.159 21.5297 107.33 14.8377Z" fill="black"/>
<path d="M79.692 96.3297C88.069 85.4367 90.551 83.5597 99.5 81.3487C102.25 80.6687 107.916 80.0747 112.09 80.0277L119.681 79.9427L125.811 83.0067C132.345 86.2707 137.464 91.3927 144.047 101.251C148.723 108.254 148.982 111.128 145.25 114.588L142.5 117.137L134 116.29C104.676 113.368 84.542 118.14 70.207 131.411C64.034 137.127 63 137.755 63 135.787C63 131.582 76.196 121.202 86.909 116.979C98.252 112.508 117.458 110.82 132.406 112.981C140.064 114.088 142.541 113.669 143.953 111.031L144.903 109.255L142.88 105.165C140.06 99.4657 129.544 88.2607 124.691 85.7847C119.168 82.9677 111.016 82.4387 102.133 84.3217C93.519 86.1487 89.948 88.5637 83.531 96.9027L78.968 102.832L69.529 107.454C54.241 114.941 51.214 119.722 49.893 138.471C49.174 148.689 47.022 162.04 44.431 172.363C43.817 174.807 41 176.091 41 173.926C41 173.367 42.1 167.823 43.444 161.607C44.788 155.39 46.328 144.427 46.866 137.243L47.845 124.182L50.373 119.193C53.576 112.873 57.14 109.897 68.103 104.391C73.965 101.447 77.818 98.7667 79.692 96.3297Z" fill="black"/>
<path d="M68.729 142.365C74.971 134.53 87.116 127.553 98 125.55C102.357 124.748 114.869 125.862 118.487 127.373C120.402 128.173 124.066 130.429 126.629 132.386C129.191 134.342 132.348 135.943 133.644 135.943C135.072 135.943 136 136.534 136 137.443C136 140.38 129.84 139.195 125 135.327C119.594 131.007 117.209 129.995 110 128.961C102.234 127.847 93.667 129.417 85.328 133.48C73.647 139.173 65.327 150.05 60.011 166.581C57.106 175.612 56.647 176.461 55.162 175.543C52.444 173.863 61.734 151.146 68.729 142.365Z" fill="black"/>
</svg>
