<svg width="200" height="200" viewBox="0 0 200 200" fill="none" xmlns="http://www.w3.org/2000/svg">
<path fill-rule="evenodd" clip-rule="evenodd" d="M20.0717 91.8635C19.9277 68.5315 20.0077 48.9285 20.2487 48.3005C20.5447 47.5275 23.8537 48.2395 30.5097 50.5075C52.4307 57.9805 80.4367 61.6005 108.333 60.5675C133.401 59.6405 149.85 56.9765 168.617 50.8065C173.724 49.1275 178.561 48.0065 179.367 48.3165L180.833 48.8785L180.818 90.1605C180.809 112.865 180.425 132.037 179.964 132.764C178.878 134.477 161.496 141.093 146.833 145.375C130.155 150.246 116.902 152.113 99.3327 152.068L84.3327 152.029L73.2667 150.007C60.3937 147.653 50.2087 144.802 32.8327 138.686L20.3327 134.286L20.0717 91.8635ZM23.0706 91.5045L23.3327 131.29L31.3327 134.193C43.8767 138.745 64.4687 144.685 74.3327 146.597L83.3327 148.342H100.333H117.333L126.333 146.587C137.006 144.507 149.089 140.997 164.833 135.405L176.333 131.32L176.595 91.5185L176.856 51.7185L175.095 52.4705C169.553 54.8355 152.721 59.3365 142.333 61.2325L130.333 63.4225L100.333 63.4205L70.3327 63.4185L57.8327 61.1605C46.8927 59.1835 29.8046 54.7225 24.5706 52.4745L22.8097 51.7185L23.0706 91.5045Z" fill="black"/>
<path fill-rule="evenodd" clip-rule="evenodd" d="M32.6527 79.8655L34.2656 77.4035C35.3406 75.7625 36.8076 74.9415 38.6646 74.9415C41.9546 74.9415 43.3847 76.0045 47.7437 81.6915C49.8767 84.4745 51.7797 85.9415 53.2587 85.9415H55.5156L56.7287 81.8955C57.5017 79.3125 58.8107 77.4535 60.3457 76.7535L62.7507 75.6575L65.3607 77.3675C66.7957 78.3075 69.4007 81.1075 71.1497 83.5885L74.3286 88.0995L75.6226 86.2705C76.3336 85.2645 77.9237 82.8665 79.1557 80.9415L81.3967 77.4415L84.7237 77.1195L88.0517 76.7985L90.3617 78.9685C91.6327 80.1625 93.2317 82.5575 93.9166 84.2905C95.4827 88.2515 97.7397 90.9415 99.5007 90.9415C100.247 90.9415 101.917 88.5465 103.212 85.6195C105.479 80.4945 109.769 75.9415 112.333 75.9415C114.521 75.9415 118.837 80.0285 120.881 84.0365C121.977 86.1845 123.427 87.9395 124.103 87.9375C124.78 87.9355 127.234 85.4715 129.558 82.4625C135.985 74.1405 140.66 74.0605 143.422 82.2235C145.092 87.1615 147.297 86.7705 153.02 80.5225L158.132 74.9415H160.999H163.865L165.517 78.4055L167.169 81.8695L165.251 86.1295C164.196 88.4725 161.609 92.5705 159.503 95.2375C157.396 97.9045 153.841 103.481 151.603 107.631C149.365 111.78 146.011 116.697 144.15 118.558L140.766 121.942H137.243H133.721L131.825 117.657C130.783 115.3 129.612 113.054 129.223 112.666C127.927 111.37 125.78 114.189 122.262 121.803C117.895 131.254 116.378 132.942 112.251 132.942H108.978L106.967 130.385C105.861 128.979 104.235 125.657 103.353 123.003C102.472 120.349 100.843 117.356 99.7327 116.352L97.7157 114.526L96.0236 115.58C95.0936 116.16 93.2077 119.356 91.8327 122.682C88.7887 130.046 87.2597 131.942 84.3657 131.942C81.0397 131.942 78.9407 128.963 75.4697 119.318C73.7447 114.524 71.7707 110.416 71.0827 110.189L69.8327 109.775V114.891C69.8327 120.244 71.7677 126.107 74.5477 129.179L76.1857 130.989L74.9397 132.216L73.6937 133.442L71.2357 130.605C69.8847 129.044 68.2467 125.782 67.5977 123.355L66.4177 118.942H63.2727C59.2897 118.942 54.1967 115.533 50.5387 110.419C46.0337 104.122 37.8327 90.9635 37.8327 90.0335C37.8327 89.5675 37.1807 88.6455 36.3837 87.9835C35.5867 87.3225 34.4217 85.2255 33.7937 83.3235L32.6527 79.8655ZM37.1917 79.4495C36.8727 80.2785 37.3147 82.0275 38.1717 83.3365C43.7377 91.8305 69.6057 97.9435 99.9607 97.9385C126.385 97.9345 144.089 94.7645 156.354 87.8425C161.835 84.7495 164.259 80.9675 162.127 78.8355C160.59 77.2985 158.196 78.7945 155.38 83.0505C152.563 87.3065 147.024 90.6125 144.397 89.6045C143.508 89.2635 141.894 86.9165 140.81 84.3885L138.841 79.7935L137.124 80.1245C136.18 80.3055 133.736 82.6655 131.695 85.3665C129.653 88.0685 127.224 90.7025 126.298 91.2205C123.687 92.6825 120.351 90.6015 117.699 85.8565C116.398 83.5285 114.583 81.1585 113.667 80.5905L112.001 79.5575L110.311 80.9595C109.382 81.7305 107.568 84.7445 106.281 87.6565C104.655 91.3325 103.118 93.2635 101.251 93.9725L98.5626 94.9945L96.2057 93.4505C94.9087 92.6005 92.7547 89.7475 91.4187 87.1105C90.0817 84.4735 88.2407 81.6955 87.3267 80.9365L85.6646 79.5575L84.0026 80.6065C83.0876 81.1835 81.1867 83.6325 79.7777 86.0485L77.2157 90.4415L74.6826 90.7425L72.1497 91.0435L67.9146 85.4345C63.1046 79.0635 60.9167 78.6725 59.5557 83.9435C58.3707 88.5335 57.1076 89.9415 54.1746 89.9415C50.7966 89.9415 47.6907 87.6645 43.9347 82.4345C40.6337 77.8375 38.2197 76.7695 37.1917 79.4495ZM153.735 93.0275C147.588 96.3635 131.153 99.9185 116.139 101.161L101.844 102.344L86.0886 101.137C77.4226 100.473 66.7347 99.0675 62.3367 98.0145C57.9397 96.9615 54.1937 96.2475 54.0117 96.4285C53.1017 97.3385 59.3626 104.913 62.3596 106.526L65.7967 108.378L67.0147 107.16C68.7987 105.376 72.2796 105.674 74.1796 107.773C75.0916 108.78 76.9607 112.909 78.3347 116.949C79.7087 120.989 81.5387 125.37 82.3997 126.685L83.9666 129.076L85.2717 127.993C85.9897 127.397 87.5326 124.288 88.7006 121.085C93.4846 107.962 101.775 108.29 106.699 121.796C110.675 132.699 113.128 132.494 118.852 120.781C123.706 110.848 125.318 108.942 128.866 108.942C132.052 108.942 133.136 110.087 134.78 115.192C135.445 117.255 136.537 118.942 137.208 118.942C139.249 118.942 145.385 111.792 148.792 105.442C150.563 102.142 153.016 98.0915 154.243 96.4415C156.751 93.0695 158.103 90.9085 157.642 91.0085C157.472 91.0455 155.714 91.9535 153.735 93.0275ZM47.9657 100.192C53.7557 109.663 56.1887 112.537 60.1727 114.609C63.5577 116.37 65.8327 115.743 65.8327 113.051C65.8327 111.699 64.7387 110.736 62.2827 109.926C58.6247 108.718 53.1597 104.319 53.5567 102.9C53.8367 101.898 44.9587 91.9415 43.7847 91.9415C43.3107 91.9415 45.1927 95.6545 47.9657 100.192Z" fill="black"/>
</svg>
