<svg width="200" height="200" viewBox="0 0 200 200" fill="none" xmlns="http://www.w3.org/2000/svg">
<path fill-rule="evenodd" clip-rule="evenodd" d="M26 118.954C26 115.412 28.906 111.921 33.123 110.395C34.98 109.723 38.559 109.139 41.076 109.097L45.651 109.021L47.759 111.271C50.616 114.321 52 118.3 52 123.464C52 126.158 52.588 128.264 53.566 129.076C56.358 131.393 58.197 136.158 57.821 140.099L57.457 143.919L59.7 144.482C62.481 145.18 64.338 148.471 63.734 151.633L63.277 154.021H65.984C69.27 154.021 71.539 156.402 72.483 160.84L73.189 164.16L74.923 162.59C78.552 159.307 82.634 160.947 84.065 166.263L85.152 170.3L87.045 167.187C88.086 165.475 90.154 163.769 91.64 163.396L94.343 162.718L96.671 165.425C97.952 166.914 99 168.782 99 169.577C99 170.371 99.45 171.021 100 171.021C100.55 171.021 101 170.407 101 169.656C101 168.905 101.952 167.08 103.116 165.601L105.232 162.911L107.853 163.216C109.521 163.41 111.204 164.687 112.486 166.732C114.874 170.541 116 170.865 116 167.744C116 164.522 118.73 161.021 121.242 161.021C122.413 161.021 124.413 161.999 125.686 163.195L128 165.37V161.218V157.067L130.493 155.434C132.079 154.394 133.916 154.034 135.545 154.443L138.105 155.085L137.007 153.034L135.909 150.983L137.209 148.252C137.924 146.75 139.503 145.084 140.718 144.55L142.927 143.578L142.344 141.256C141.591 138.254 144.635 130.287 147.024 129.008L148.874 128.018L148.369 124.77C147.811 121.179 150.147 113.621 152.681 110.821C156.181 106.953 169.235 109.398 172.613 114.553L174.265 117.074L173.666 121.443C172.882 127.162 170.118 132.849 167.759 133.597L165.879 134.194L166.508 137.058C167.432 141.264 164.02 148.356 160.34 149.88L157.41 151.094L157.808 154.5L158.205 157.906L155.545 160.566L152.885 163.226L149.54 162.836L146.195 162.445L146.725 165.717C147.879 172.822 143.196 177.532 137.11 175.39L134.5 174.471L132.5 177.406C130.1 180.929 123.706 183.423 120.132 182.232L117.663 181.409L114.12 183.215C109.902 185.365 106.441 185.499 102.898 183.651L100.295 182.293L97.898 183.621C94.515 185.496 91.027 185.329 86.618 183.081L82.813 181.141L80.474 182.031C76.535 183.528 68.602 180.494 67.517 177.075L66.899 175.127L62.092 175.697L57.285 176.266L55.642 173.921C54.739 172.631 54 169.651 54 167.298V163.021H51.056C49.399 163.021 46.905 161.984 45.354 160.649L42.596 158.277L42.696 154.763L42.796 151.249L40.395 150.155C36.839 148.535 33.898 143.176 34.178 138.829L34.416 135.136L31.803 133.081C29.041 130.908 26 123.505 26 118.954ZM36.05 113.004C28.498 115.561 27.8 117.143 30.6 125.361C31.48 127.945 33.052 130.514 34.093 131.071L35.985 132.083L41.242 129.881C44.134 128.671 47.063 127.251 47.75 126.728C50.833 124.38 47.631 113.448 43.421 111.951C42.179 111.509 39.214 111.933 36.05 113.004ZM154.196 113.284C152.28 115.594 150.734 123.656 151.819 125.684C152.371 126.715 155.632 128.569 159.066 129.805L165.309 132.051L167.075 130.453C169.179 128.549 171.429 119.949 170.549 117.176C169.253 113.093 156.812 110.133 154.196 113.284ZM41.962 133.271L37.5 135.521L37.19 139.257L36.881 142.993L39.491 145.603L42.101 148.213L44.8 147.556C49.244 146.475 55 142.197 55 139.975C55 138.865 54.348 136.396 53.551 134.489L52.102 131.021H49.263C47.701 131.021 44.416 132.034 41.962 133.271ZM147.642 133.271C146.87 134.508 145.953 136.752 145.604 138.256L144.97 140.991L146.851 142.872C147.886 143.907 150.824 145.552 153.381 146.529L158.03 148.304L159.923 146.59C160.965 145.648 162.362 143.562 163.028 141.955L164.238 139.033L162.599 136.532C160.816 133.811 155.147 131.021 151.401 131.021C150.042 131.021 148.453 131.972 147.642 133.271ZM49.898 149.303L46.5 151.585L46.187 154.796L45.874 158.007L48.464 159.186L51.053 160.366L54.537 158.705C56.627 157.708 58.683 155.656 59.673 153.58L61.325 150.117L60.04 148.569C58.195 146.346 53.831 146.662 49.898 149.303ZM140.667 147.688C137.776 150.579 144.343 160.021 149.245 160.021C151.908 160.021 155 157.251 155 154.867C155 150.654 143.473 144.881 140.667 147.688ZM62.329 158.479C60.585 159.237 58.672 160.765 58.079 161.874C56.436 164.943 56.712 171.973 58.502 172.66C60.722 173.512 64.777 172.244 67.025 169.996L69 168.021V163.128V158.235L67.418 157.628C66.548 157.294 65.761 157.039 65.668 157.06C65.576 157.082 64.073 157.72 62.329 158.479ZM131.644 158.507C131.29 159.429 131 161.757 131 163.68V167.175L133.923 170.098C139.342 175.517 144.823 172.924 143.447 165.592C142.676 161.481 139.483 158.268 135.346 157.44L132.288 156.829L131.644 158.507ZM73.437 168.645C70.997 171.303 69 173.792 69 174.177C69 176.178 74.628 179.099 77.947 178.82L81.5 178.521L81.804 174.871C82.186 170.291 80.809 164.791 79.141 164.235C78.444 164.002 75.877 165.987 73.437 168.645ZM119.607 165.603C119.273 166.473 119 169.906 119 173.233V179.281L123.689 178.753C127.795 178.29 131.018 176.228 130.994 174.08C130.979 172.785 122.733 164.021 121.529 164.021C120.806 164.021 119.941 164.733 119.607 165.603ZM91.301 166.814C89.818 167.757 86.052 175.903 86.022 178.232C86.007 179.39 87.293 180.292 89.996 181.02L93.992 182.096L96.091 180.972L98.19 179.849L97.503 176.185C96.632 171.538 94.346 166.016 93.301 166.036C92.86 166.045 91.96 166.395 91.301 166.814ZM105.568 167.596C103.927 169.237 102.476 175.754 102.882 179.663C103.171 182.447 115 181.767 115 178.966C115 177.143 109.575 167.072 108.337 166.597C107.633 166.327 106.388 166.776 105.568 167.596Z" fill="black"/>
<path fill-rule="evenodd" clip-rule="evenodd" d="M151.603 138.736C152.76 138.068 153.51 136.959 153.27 136.271C152.648 134.489 154.669 134.715 155.355 136.504C155.696 137.392 156.641 137.761 157.712 137.423L159.5 136.858L157.75 138.3C156.788 139.093 155.97 140.817 155.932 142.131L155.865 144.521L154.78 142.271C154.178 141.023 152.76 140.005 151.597 139.986L149.5 139.95L151.603 138.736Z" fill="black"/>
<path fill-rule="evenodd" clip-rule="evenodd" d="M157.965 120.021C159.045 120.021 160.466 119.019 161.122 117.793L162.314 115.566L163.055 117.543C163.538 118.832 163.277 119.931 162.307 120.698C161.371 121.437 161.063 122.644 161.477 123.948C161.862 125.161 161.692 126.021 161.067 126.021C160.48 126.021 160 125.304 160 124.427C160 123.551 159.1 122.598 158 122.311C155.427 121.638 155.402 120.021 157.965 120.021Z" fill="black"/>
<path fill-rule="evenodd" clip-rule="evenodd" d="M43.608 139.021C41.285 139.021 41.633 137.656 44.25 136.508L46.5 135.521L46.804 136.668C46.971 137.299 48.096 138.135 49.304 138.524L51.5 139.233L49.5 139.717C48.4 139.983 46.701 141.173 45.724 142.361L43.949 144.521L44.583 141.771L45.217 139.021H43.608Z" fill="black"/>
<path fill-rule="evenodd" clip-rule="evenodd" d="M38.108 121.021C36.861 121.021 36.597 117.761 37.75 116.598C38.163 116.182 38.645 116.557 38.823 117.431C39.001 118.305 40.238 119.294 41.573 119.629C44.193 120.286 44.914 122.021 42.567 122.021C41.779 122.021 40.849 122.921 40.5 124.021C39.577 126.93 37.847 126.477 38.589 123.521C38.976 121.981 38.791 121.021 38.108 121.021Z" fill="black"/>
<path fill-rule="evenodd" clip-rule="evenodd" d="M78.355 20.5005C79.535 19.1875 82.075 17.6824 84 17.1574C89.645 15.6164 96.66 15.8244 98.42 17.5844L99.983 19.1474L102.214 17.5844C106.621 14.4974 117.904 16.1615 121.98 20.4995C123.534 22.1545 125.009 22.8105 126.406 22.4685C129.704 21.6595 137.275 26.0375 139 29.7495L140.5 32.9784L144.177 32.9995L147.855 33.0214L150.025 35.7714L152.195 38.5214L151.72 42.7714L151.246 47.0214H154.05C155.915 47.0214 157.576 47.9374 159.006 49.7554L161.156 52.4895L160.589 55.3284L160.021 58.1684L162.944 60.6275C166.134 63.3115 168.495 69.0204 167.69 72.1004C167.358 73.3704 168.161 75.0285 169.997 76.8645L172.814 79.6814L173.52 85.3335C173.908 88.4415 173.933 92.1514 173.576 93.5764L172.925 96.1665L168.389 98.1734C162.779 100.655 155.935 101.042 153.493 99.0164C150.71 96.7084 149 91.6244 149 85.6604V80.2354L147.552 79.6795C144.993 78.6975 142.74 72.9964 143.29 68.8944L143.8 65.0924L141.902 64.4904C139.75 63.8074 138.545 60.1814 139.248 56.5034L139.723 54.0214H137.016C135.528 54.0214 133.512 53.1394 132.536 52.0614L130.762 50.1015L131.446 46.4594L132.129 42.8175L129.842 44.4195C124.561 48.1185 120.002 45.2004 119.996 38.1164L119.993 33.5214L118.082 36.6544C112.317 46.1094 104.485 44.5525 101.587 33.3745L100.329 28.5215L98.688 34.0954C95.817 43.8464 90.418 45.8655 84.368 39.4505L81 35.8794V38.7274C81 44.8024 75.889 47.9174 71.441 44.5534C68.613 42.4134 68.408 42.6084 68.83 47.0404C69.313 52.0994 67.756 54.0214 63.178 54.0214H59.6L60.8 55.2215C63.481 57.9025 60.972 65.0214 57.345 65.0214C55.715 65.0214 55.673 65.5425 57.094 68.1975L58.188 70.2414L56.511 74.6325C55.588 77.0485 54.083 79.5865 53.167 80.2735L51.5 81.5214L51.442 87.6544C51.375 94.6294 49.434 98.5165 45.198 100.153L42.5 101.196L37.059 99.9945C30.692 98.5885 26 94.5775 26 90.5415C26 85.3615 28.254 78.9855 30.872 76.7575L33.5 74.5214L33.193 70.8314C32.827 66.4274 35.23 61.3294 38.34 59.9124L40.583 58.8905L40.175 55.3944L39.767 51.8985L42.058 49.4605C43.318 48.1185 45.395 47.0214 46.674 47.0214H49V42.0214V37.0214L51 35.0214C52.154 33.8674 54.375 33.0054 56.25 32.9824L59.5 32.9444L61.5 29.7324C63.746 26.1264 71.523 21.7015 74.355 22.4195C75.482 22.7045 77.051 21.9525 78.355 20.5005ZM86 19.6505C79.366 21.9375 78.754 23.6144 82.11 30.3114C84.823 35.7254 88.864 40.0214 91.243 40.0214C93.897 40.0214 97.069 32.2924 97.307 25.2484L97.5 19.5215L92.5 19.3275C89.75 19.2205 86.825 19.3665 86 19.6505ZM103.275 20.4945C102.012 22.7525 103.605 32.6584 105.853 36.5194C106.815 38.1704 108.568 39.6624 109.749 39.8344L111.897 40.1474L114.725 36.2424C116.281 34.0944 118.407 30.4445 119.451 28.1305L121.347 23.9245L119.195 21.7715L117.042 19.6184L110.632 19.2105L104.222 18.8025L103.275 20.4945ZM67.775 27.5555C66.276 28.3825 64.547 30.0005 63.931 31.1505L62.811 33.2424L68.065 38.1745C70.954 40.8875 74.031 42.9695 74.901 42.8015C76.866 42.4235 77.67 38.1244 77.006 31.5424L76.5 26.5215L73.5 26.2865C71.85 26.1575 69.274 26.7285 67.775 27.5555ZM123.975 28.5865C122.71 31.9145 122.713 41.7264 123.979 42.5084C124.518 42.8414 125.908 42.6064 127.068 41.9854C130.436 40.1824 137 33.9095 137 32.4945C137 30.2655 131.033 26.0215 127.899 26.0215H124.95L123.975 28.5865ZM53.2 37.2215C52.54 37.8815 52 40.0985 52 42.1485V45.8764L54.601 47.9224C57.741 50.3924 63.73 51.6915 65.2 50.2215C66.806 48.6155 65.251 42.4734 62.371 39.0504C59.671 35.8414 55.427 34.9945 53.2 37.2215ZM139.342 37.4945C136.726 39.3265 133.726 46.5834 134.533 49.1264C135.297 51.5334 138.299 51.5225 143.65 49.0935L147.8 47.2085L148.441 44.2885C148.794 42.6825 148.625 40.1655 148.066 38.6955L147.05 36.0214H144.247C142.706 36.0214 140.499 36.6845 139.342 37.4945ZM44.2 51.2215C41.069 54.3525 43.614 58.7594 50.037 61.3324C58.107 64.5644 61.585 59.6724 55.524 53.6124L51.933 50.0214H48.667C46.87 50.0214 44.86 50.5615 44.2 51.2215ZM145.327 53.4945C142.978 55.8435 141.958 57.7045 142.177 59.2445L142.5 61.5214L145.686 61.8305C149.582 62.2075 154.418 59.8394 156.622 56.4754L158.264 53.9704L156.477 51.9954C153.664 48.8884 149.354 49.4675 145.327 53.4945ZM154 63.2814C145.843 66.8594 144.523 69.2634 147.526 75.0714L149.051 78.0214L152.276 77.9804C156.403 77.9274 164.408 74.0235 164.804 71.8695C165.259 69.4045 162.431 63.3164 160.335 62.2454L158.5 61.3074L154 63.2814ZM38.073 64.6564C33.634 70.2994 35.702 74.2414 44.784 77.4454C49.765 79.2024 51.318 78.8134 52.865 75.4194C55.548 69.5294 53.657 66.2224 46.075 63.5474C42.8482 62.4092 41.4897 61.9253 40.4536 62.3099C39.6909 62.593 39.1029 63.3467 38.073 64.6564ZM159.611 79.4395C152.674 82.0285 150.683 84.2775 151.592 88.5025C152.52 92.8185 154.666 96.6794 156.535 97.3964C158.725 98.2364 167.071 96.1115 169.358 94.1304L171.216 92.5214L170.679 87.9744C170.073 82.8404 168.286 78.3454 166.592 77.6954C165.967 77.4554 162.825 78.2405 159.611 79.4395ZM31.676 80.1564C29.476 83.5794 28.471 91.6794 30.016 93.5404C30.701 94.3664 33.699 95.7504 36.677 96.6164L42.093 98.1904L44.497 96.6154C46.87 95.0604 48.984 89.7024 48.994 85.2154L49 82.9094L44.443 80.8934C41.936 79.7844 38.38 78.6324 36.541 78.3344L33.197 77.7915L31.676 80.1564Z" fill="black"/>
<path fill-rule="evenodd" clip-rule="evenodd" d="M36.758 89.8634C37.441 89.1804 38 87.3345 38 85.7625C38 84.1115 38.422 83.1644 39 83.5214C39.55 83.8614 40 84.7355 40 85.4635C40 86.1925 40.993 87.0474 42.206 87.3654C44.241 87.8974 44.056 89.3544 41.917 89.6464C41.5119 89.7019 40.8961 89.7851 40.4053 89.8515L40.073 89.8964C39.564 89.9654 39.001 90.6844 38.823 91.4954L38.5 92.9685L37.008 92.0365L35.517 91.1044L36.758 89.8634Z" fill="black"/>
<path fill-rule="evenodd" clip-rule="evenodd" d="M42.208 70.9644C43.151 70.4154 43.663 69.3074 43.351 68.4954C43.04 67.6844 43.236 67.0214 43.786 67.0214C44.336 67.0214 45.045 67.6964 45.362 68.5214C45.678 69.3464 46.739 70.0504 47.719 70.0844L49.5 70.1485L47.267 71.0465C45.729 71.6645 45.209 72.5024 45.598 73.7334L46.163 75.5214L44.721 73.7714C43.928 72.8094 42.654 72.0074 41.89 71.9914L40.5 71.9605L42.208 70.9644Z" fill="black"/>
<path fill-rule="evenodd" clip-rule="evenodd" d="M66.628 32.9895C66.007 32.9725 66.763 31.8475 68.306 30.4895C71.258 27.8935 73 27.3475 73 29.0215C73 29.5715 72.38 30.0214 71.622 30.0214C70.865 30.0214 69.685 30.6964 69 31.5214C68.315 32.3464 67.248 33.0075 66.628 32.9895Z" fill="black"/>
<path fill-rule="evenodd" clip-rule="evenodd" d="M83.128 24.9795C82.923 25.0025 83.315 24.3465 84 23.5215C84.802 22.5555 86.893 22.0515 89.872 22.1065L94.5 22.1914L89 23.5645C85.975 24.3195 83.332 24.9555 83.128 24.9795Z" fill="black"/>
<path fill-rule="evenodd" clip-rule="evenodd" d="M109.066 23.0215C107.38 23.0215 106 22.5715 106 22.0215C106 21.4715 106.914 21.0215 108.032 21.0215C110.615 21.0215 117.494 23.8604 116.739 24.6154C116.427 24.9275 115.262 24.6974 114.151 24.1024C113.04 23.5074 110.752 23.0215 109.066 23.0215Z" fill="black"/>
<path fill-rule="evenodd" clip-rule="evenodd" d="M132.139 29.9884C135.169 32.5124 134.405 32.5224 129.5 30.0214L125.577 28.0215H127.678C128.833 28.0215 130.841 28.9064 132.139 29.9884Z" fill="black"/>
<path fill-rule="evenodd" clip-rule="evenodd" d="M151.79 71.0214L154.145 68.5385C157.027 65.5005 157.032 65.4995 156.738 68.2445C156.607 69.4675 157.025 70.4805 157.667 70.4945C159.803 70.5435 160.368 72.0214 158.25 72.0214C157.104 72.0214 155.94 72.5844 155.662 73.2714C155.361 74.0184 155.126 73.8164 155.079 72.7714C155.036 71.8094 154.278 71.0214 153.395 71.0214H151.79Z" fill="black"/>
<path fill-rule="evenodd" clip-rule="evenodd" d="M157.663 87.8394C158.853 87.2644 160.048 85.9444 160.32 84.9074C160.591 83.8704 161.357 83.0214 162.023 83.0214C162.771 83.0214 163.017 83.8464 162.668 85.1834C162.357 86.3724 162.571 88.2204 163.144 89.2904L164.185 91.2365L163.06 92.3615L161.934 93.4874L161.351 91.2544L160.767 89.0214L158.133 88.9534L155.5 88.8864L157.663 87.8394Z" fill="black"/>
</svg>
