<svg width="200" height="200" viewBox="0 0 200 200" fill="none" xmlns="http://www.w3.org/2000/svg">
<path fill-rule="evenodd" clip-rule="evenodd" d="M131.073 85.017L138.287 80.9891C142.254 78.7741 146.306 77.1551 147.291 77.3931C148.275 77.6301 154.474 80.8771 161.064 84.6091L173.048 91.3941L172.774 107.373L172.5 123.353L168 125.989C165.525 127.439 159.675 130.706 155 133.249L146.5 137.873L139.25 133.726C135.262 131.445 132 128.997 132 128.285C132 126.3 133.848 126.713 139.669 129.999L145 133.007V120.15V107.294L141.25 105.595C135.513 102.996 132.914 100.711 133.902 99.1321L134.752 97.7741L140.665 101.05L146.577 104.325L155.039 99.707C159.692 97.167 164.359 94.4581 165.409 93.6871L167.319 92.2841L156.985 86.4321L146.651 80.5811L139.86 84.2861C134.404 87.2624 132.926 88.1138 132.276 87.6916C131.996 87.5096 131.869 87.091 131.644 86.504L131.073 85.017ZM158.5 101.859L148.5 107.607L148.219 119.798C148.039 127.604 148.305 131.99 148.959 131.99C149.52 131.99 154.484 129.474 159.989 126.398L170 120.807V108.398C170 101.574 169.662 96.017 169.25 96.051C168.838 96.084 164 98.6981 158.5 101.859Z" fill="black"/>
<path fill-rule="evenodd" clip-rule="evenodd" d="M73.008 140.407C73.004 136.511 73.3 133.023 73.667 132.657C74.74 131.583 75.994 131.888 76.069 133.24C76.107 133.928 76.22 136.922 76.319 139.894L76.5 145.298L87 151.129L97.5 156.96L97.781 144.975L98.062 132.99H99.531H101V144.49V155.99L102.25 155.974C102.938 155.966 107.775 153.556 113 150.619L122.5 145.279L122.796 138.634L123.091 131.99H124.546H126L125.989 139.74L125.979 147.49L114.405 153.895C108.039 157.418 101.781 160.5 100.498 160.746C98.924 161.047 94.08 158.966 85.591 154.341L73.016 147.49L73.008 140.407Z" fill="black"/>
<path fill-rule="evenodd" clip-rule="evenodd" d="M26 91.342L38.742 84.1661C45.751 80.2191 51.938 76.9961 52.492 77.0031C54.199 77.0261 68 85.001 68 85.965C68 88.276 65.446 87.8321 59.13 84.4201L52.28 80.72L42.14 86.4111C36.563 89.5421 32.008 92.4151 32.018 92.7961C32.037 93.4981 49.442 103.216 51.75 103.813C52.438 103.991 55.511 102.7 58.581 100.944L64.161 97.751L65.238 98.8281L66.315 99.905L65.189 101.262C64.57 102.008 61.799 103.679 59.032 104.975L54 107.332V120.236V133.14L59.692 130.057L65.384 126.974L66.442 128.049L67.5 129.125L65.5 130.638C64.4 131.471 60.937 133.46 57.804 135.058L52.108 137.964L40.304 131.374C33.812 127.749 27.938 124.324 27.25 123.764L26 122.745V107.044V91.342ZM29 108.286V120.718L39.405 126.704L49.81 132.69L50.405 129.715C51.504 124.219 51.062 109.45 49.75 107.816C49.063 106.96 44.112 103.918 38.75 101.056L29 95.853V108.286Z" fill="black"/>
<path fill-rule="evenodd" clip-rule="evenodd" d="M73.011 53.49L85.755 46.2501C92.765 42.2681 98.921 39.006 99.436 39C100.488 38.989 119.001 49.262 123.25 52.215L126 54.126V69.0581V83.9901H124.5H123V71.4901V58.9901H121.838C120.705 58.9901 116.897 61.0221 106.291 67.2861L101.083 70.3621L100.791 76.8461C100.608 80.9241 100.036 83.4841 99.25 83.7441L98 84.1571V77.1791V70.2011L88.1 64.5951C82.655 61.5121 77.719 58.9901 77.131 58.9901C76.446 58.9901 75.961 63.3641 75.781 71.1581L75.5 83.327L74.25 83.7421L73 84.1571L73.005 68.8231L73.011 53.49ZM88.748 48.6461C83.384 51.6861 79.215 54.528 79.482 54.96C79.943 55.707 97.047 65.6941 98.789 66.2341C99.728 66.5251 118.759 56.189 119.505 54.982C119.99 54.197 100.959 42.933 99.35 43.053C98.882 43.088 94.112 45.6051 88.748 48.6461Z" fill="black"/>
<path fill-rule="evenodd" clip-rule="evenodd" d="M73 121.99V107.927V93.863L76.25 94.1771L79.5 94.4901L79.582 99.4901L79.665 104.49L85.332 104.79L91 105.09V99.54V93.9901H94H97V107.99V121.99H94H91V116.657C91 113.723 90.813 111.136 90.584 110.907C90.355 110.678 87.88 110.646 85.084 110.837L80 111.183V116.587V121.99H76.5H73Z" fill="black"/>
<path fill-rule="evenodd" clip-rule="evenodd" d="M103.306 115.99C102.01 112.189 101.554 95.769 102.713 94.611C103.104 94.219 104.567 94.031 105.963 94.194L108.5 94.4901L108.567 104.167C108.642 114.864 109.543 116.99 114 116.99C118.471 116.99 119.478 114.713 119.707 104.087L119.914 94.4901L123.045 94.1701L126.176 93.85L125.838 105.4L125.5 116.95L122.868 119.579C117.209 125.232 105.74 123.128 103.306 115.99Z" fill="black"/>
</svg>
