<svg width="200" height="200" viewBox="0 0 200 200" fill="none" xmlns="http://www.w3.org/2000/svg">
<path fill-rule="evenodd" clip-rule="evenodd" d="M56.0972 46.5855C56.8022 35.8035 62.2502 27.3295 70.8762 23.5985C75.7182 21.5045 82.5452 21.6455 90.0372 23.9935C98.0562 26.5075 102.099 26.5105 109.376 24.0065C128.898 17.2895 143.962 27.9345 144.042 48.5035C144.078 57.5765 142.017 64.1515 136.214 73.4805L131.876 80.4545L131.874 84.9805C131.872 91.2895 129.206 96.1045 124.936 97.5115C120.923 98.8335 120.078 100.451 122.166 102.814C122.988 103.745 123.97 106.827 124.349 109.663L125.038 114.821L122.957 115.48C120.486 116.264 120.14 120.151 122.376 122.006C124.511 123.778 124.231 125.68 121.739 126.331L119.603 126.89L120.286 132.035C120.661 134.865 121.494 138.022 122.136 139.051L123.304 140.921L120.897 143.485L118.489 146.047L119.749 149.53C121.227 153.619 120.522 156.667 117.906 157.498C116.647 157.897 115.81 159.463 115.339 162.298C113.49 173.424 105.442 179.582 96.0512 177.053C91.6932 175.88 86.3152 170.604 85.2822 166.488C84.8892 164.922 83.9502 164.006 82.7362 164.006C80.1242 164.006 79.2792 161.324 81.2172 159.183C82.9992 157.214 82.4602 153.445 80.2772 152.607C78.6732 151.992 78.3562 149.006 79.8952 149.006C81.0942 149.006 80.0342 143.812 78.6492 142.902C78.1442 142.57 78.0382 140.657 78.4152 138.652C78.8682 136.234 78.7242 135.006 77.9872 135.006C77.3762 135.006 76.8762 134.106 76.8762 133.006C76.8762 131.906 77.3262 131.006 77.8762 131.006C79.4972 131.006 79.0452 125.008 77.3762 124.368C75.6682 123.712 75.3112 120.006 76.9552 120.006C78.0912 120.006 77.2202 113.946 75.9492 113.006C75.5772 112.731 75.2962 109.499 75.3242 105.824L75.3762 99.1425L72.4342 96.0695L69.4932 92.9965L68.7552 86.0965L68.0182 79.1965L63.5132 72.3514C57.6892 63.5034 55.4912 55.8665 56.0972 46.5855ZM75.4402 26.2225C69.8932 27.3925 65.5072 31.0985 62.4792 37.1745C57.7062 46.7525 59.2982 58.8004 66.8672 70.3955L71.6932 77.7885L72.4062 84.6475C72.7982 88.4205 73.5692 92.0695 74.1202 92.7565L75.1212 94.0065H99.8762H124.631L125.946 92.4225C126.669 91.5515 127.453 88.1785 127.688 84.9275L128.116 79.0175L131.46 73.7615C133.3 70.8715 135.785 66.4815 136.984 64.0065L139.163 59.5065L139.641 50.7654L140.12 42.0255L137.399 36.4645C135.594 32.7735 133.362 30.0335 130.762 28.3125L126.846 25.7205L121.611 25.7675C118.732 25.7935 114.395 26.5365 111.975 27.4195C105.028 29.9525 98.0792 30.3315 91.8762 28.5145C82.5502 25.7835 79.5222 25.3605 75.4402 26.2225ZM79.4482 102.256C79.7752 104.593 80.1792 106.974 80.3472 107.545C80.5432 108.214 87.0732 107.541 98.7632 105.646L116.876 102.711V100.358V98.0065H97.8642H78.8522L79.4482 102.256ZM100.376 109.529L81.3762 112.571L81.0632 115.789L80.7492 119.006L82.5632 119.012C85.6672 119.023 118.33 112.757 119.204 111.983C119.66 111.58 119.885 110.178 119.704 108.869L119.376 106.488L100.376 109.529ZM98.8762 120.378L82.3762 123.569L82.1202 125.538C81.9802 126.62 82.2242 128.058 82.6642 128.732L83.4642 129.957L98.9202 126.967C107.421 125.323 115.098 123.749 115.981 123.47C117.746 122.913 118.116 116.945 116.376 117.099C115.826 117.148 107.951 118.623 98.8762 120.378ZM112.376 128.155C110.726 128.611 103.414 130.179 96.1262 131.638L82.8762 134.291V136.149C82.8762 137.171 83.2132 137.991 83.6262 137.972C86.3912 137.848 115.241 131.041 115.933 130.349C117.634 128.648 115.455 127.303 112.376 128.155ZM105.876 137.126C101.201 138.16 94.1352 139.705 90.1742 140.563L82.9712 142.121L84.1262 144.814C84.7612 146.294 85.3492 147.628 85.4332 147.777C85.7522 148.347 115.404 141.813 116.454 140.941C117.062 140.436 117.86 140.241 118.226 140.506C118.593 140.772 118.439 140.453 117.884 139.798C117.33 139.142 116.876 137.796 116.876 136.806C116.876 134.696 116.876 134.694 105.876 137.126ZM99.8762 149.077C92.4512 150.649 86.2642 151.952 86.1262 151.972C85.4942 152.061 86.0002 156.653 86.7762 157.879L87.6462 159.251L94.5112 158.107C109.644 155.585 116.984 153.714 115.922 152.652C115.346 152.076 114.876 150.346 114.876 148.806C114.876 147.266 114.539 146.054 114.126 146.113C113.713 146.171 107.301 147.505 99.8762 149.077ZM102.376 160.488C99.0762 161.191 94.6892 162.067 92.6262 162.433C86.4552 163.527 88.7032 169.629 96.3532 172.55L100.668 174.199L104.031 172.602C107.997 170.721 109.964 167.906 110.915 162.756L111.607 159.006L109.992 159.106C109.103 159.162 105.676 159.784 102.376 160.488Z" fill="black"/>
<path fill-rule="evenodd" clip-rule="evenodd" d="M68.2672 47.5825C66.3832 42.6725 72.1702 33.5455 77.6852 32.7295C80.4852 32.3155 81.4992 32.4015 86.1922 33.4495C89.5022 34.1885 89.6372 37.7005 86.3382 37.2225C85.2592 37.0665 82.6932 36.8495 80.6372 36.7395L76.8972 36.5405L74.7422 38.6965C73.5562 39.8815 72.3122 42.5375 71.9782 44.5965C71.3302 48.5795 69.2822 50.2275 68.2672 47.5825Z" fill="black"/>
</svg>
