<svg width="200" height="200" viewBox="0 0 200 200" fill="none" xmlns="http://www.w3.org/2000/svg">
<path fill-rule="evenodd" clip-rule="evenodd" d="M161.21 34.5C161.062 33.95 160.993 33.163 161.059 32.75C161.124 32.337 161.807 32 162.577 32C164.395 32 166.608 41.094 165.788 45.193C164.838 49.943 166.709 54.98 171.657 60.993C174.143 64.014 176.177 66.963 176.177 67.546C176.177 68.129 174.779 70.506 173.071 72.829C169.854 77.204 167.134 84.553 167.912 86.771C168.157 87.47 169.667 88.719 171.267 89.547C174.397 91.165 174.87 92.917 172.992 95.925L171.807 97.823L173.444 103.661C175.433 110.756 176.151 117.638 175.254 121L174.587 123.5L166.132 123.629C161.482 123.699 157.138 123.326 156.479 122.8C155.714 122.187 154.641 122.201 153.505 122.836C152.528 123.383 151.042 123.479 150.203 123.049C147.8 121.819 138.879 121.061 136.724 121.905L134.771 122.669L138.224 123.455C140.123 123.887 142.87 124.157 144.328 124.055C145.786 123.953 147.266 124.335 147.617 124.902C147.967 125.47 149.573 125.671 151.185 125.348C152.797 125.026 154.917 125.101 155.896 125.515C157.806 126.322 164.92 127.112 169.452 127.021C171.052 126.988 172.473 127.607 172.809 128.485C173.13 129.321 171.544 134.22 169.285 139.371L165.177 148.738V155.146C165.177 162.278 163.8 165.109 159.166 167.506C153.224 170.579 143.484 168.965 125.353 161.904C119.675 159.693 109.1 156.047 101.853 153.802C84.869 148.541 79.382 146.083 74.23 141.429C66.526 134.469 63.794 125.792 62.761 105C62.171 93.122 61.017 86.039 57.758 74.295L56.313 69.09L57.307 65.493C58.333 61.776 62.943 58.011 66.477 58.004C69.728 57.997 73.872 60.85 75.173 63.991C76.929 68.23 79.432 69.324 85.607 68.552C91.977 67.756 94.601 68.69 103.772 75.013C110.232 79.468 115.191 81.408 125.38 83.468C128.628 84.125 133.995 88.512 132.896 89.612C132.467 90.043 130.878 89.664 129.365 88.77C127.852 87.876 123.593 86.444 119.901 85.588C116.208 84.732 111.665 83.395 109.804 82.618L106.421 81.204L105.79 85.852C105.443 88.408 104.446 92.654 103.575 95.287C101.796 100.667 102.224 103 104.991 103C106.023 103 107.662 103.879 108.634 104.953L110.401 106.905L113.277 106.33C115.107 105.964 117.066 106.353 118.661 107.397C120.211 108.413 122.107 108.805 123.626 108.424C125.054 108.065 127.412 108.47 129.258 109.39C131.004 110.261 133.467 110.714 134.732 110.397C135.997 110.079 137.823 110.262 138.791 110.804C139.959 111.458 141.324 111.435 142.859 110.735L145.169 109.683L147.049 111.385L148.93 113.086L149.522 111.543C150.284 109.557 152.572 109.566 154.229 111.563L155.527 113.126L156.402 111.563C157.431 109.724 160.292 109.515 161.935 111.158L163.092 112.315L164.491 111.154C165.312 110.473 167.191 110.253 169.034 110.621C172.644 111.343 172.817 110.775 170.6 105.47C169.689 103.29 169.161 99.752 169.35 97.097L169.677 92.5L164.058 92.824L158.439 93.149L156.22 90.327L154 87.506L154.631 83.56C155.289 79.446 159.919 70 161.277 70C163.194 70 162.971 72.117 160.608 76.344L158.058 80.908L158.367 85.204L158.677 89.5L161.874 89.809L165.071 90.119L164.508 86.652L163.945 83.186L166.574 77.843C168.02 74.904 169.939 71.349 170.838 69.942L172.472 67.383L167.623 61.139L162.774 54.894L162.127 45.197C161.771 39.864 161.359 35.05 161.21 34.5ZM61.594 64.487C59.678 67.411 59.968 71.052 63.013 82.31C64.287 87.02 65.543 96.15 66.177 105.31C67.349 122.245 68.751 128.386 72.959 135C76.762 140.978 81.695 143.518 103.677 150.821C113.577 154.111 125.052 158.143 129.177 159.782C139.493 163.882 150.332 166.381 154.446 165.609C156.305 165.26 158.861 164.011 160.126 162.833L162.425 160.691L161.861 155.23L161.298 149.768L163.237 144.847C164.747 141.017 165.296 139.694 164.884 139.238C164.649 138.977 164.1 139 163.236 139C162.168 139 161.003 138.528 160.647 137.951C160.201 137.23 159.611 137.224 158.756 137.934L157.513 138.966L155.609 137.574L153.705 136.182L151.877 137.16C150.599 137.844 149.579 137.749 148.488 136.843C147.629 136.131 145.631 135.684 144.048 135.85L141.169 136.152L140.337 133.905C139.79 132.425 139.259 132.058 138.783 132.829C137.678 134.616 132.735 134.225 130.062 132.139C128.491 130.913 126.994 130.526 125.677 131.004C123.589 131.762 119.736 130.709 117.348 128.727C116.581 128.09 114.378 127.705 112.452 127.871L108.95 128.173L105.476 124.836C97.855 117.518 96.254 108.437 100.284 95.39C101.442 91.638 102.455 86.378 102.534 83.7L102.677 78.831L99.744 76.306L96.811 73.781L95.54 75.64C89.513 84.463 86.418 87 81.677 87C77.877 87 73.601 84.202 71.533 80.362L69.767 77.083L71.472 73.508C73.583 69.081 73.615 67.07 71.62 64.223L70.064 62H66.643H63.223L61.594 64.487ZM75.334 72.555C73.473 76.639 73.952 79.678 76.812 81.927C80.135 84.541 83.197 84.559 86.471 81.984C89.537 79.572 93.672 73.161 92.753 72.243C92.395 71.885 89.148 71.701 85.538 71.834C81.928 71.967 78.415 71.613 77.732 71.046L76.491 70.016L75.334 72.555ZM101.066 106.25C100.858 110.483 101.385 113.501 102.817 116.27L104.249 119.039L106.686 117.27C108.026 116.296 108.91 114.901 108.65 114.168C108.39 113.436 108.177 111.535 108.177 109.944V107.051L105.227 105.526C101.4 103.547 101.198 103.582 101.066 106.25ZM111.891 109.619C110.48 111.03 111.181 114 112.927 114.014C113.889 114.021 115.725 114.308 117.007 114.651L119.336 115.275L119.007 112.387L118.677 109.5L115.641 109.203C113.971 109.039 112.284 109.227 111.891 109.619ZM122.422 112.155C120.256 114.321 121.06 115.874 124.897 116.933C129.135 118.103 130.496 117.287 130.012 113.865L129.677 111.5L126.672 111.205C125.019 111.043 123.107 111.47 122.422 112.155ZM134.377 113.2C133.717 113.86 133.177 115.435 133.177 116.7V119H136.177H139.177V116.7C139.177 114.555 137.546 112 136.177 112C135.847 112 135.037 112.54 134.377 113.2ZM157.613 114.398C156.593 118.464 157.469 121.5 159.663 121.5C162.135 121.5 162.746 118.788 161.144 114.921C159.675 111.374 158.419 111.188 157.613 114.398ZM165.37 113.684C163.754 116.643 163.869 119.5 165.665 120.99L167.153 122.225L167.767 120.625C168.105 119.745 167.972 117.332 167.472 115.262L166.563 111.5L165.37 113.684ZM142.844 113.667C141.568 114.942 142.187 119.067 143.744 119.664C145.991 120.526 147.108 118.931 146.483 115.75C145.973 113.148 144.313 112.198 142.844 113.667ZM149.897 115.687C149.256 119.04 149.963 121 151.815 121C153.694 121 154.544 118.6 153.766 115.498C152.935 112.189 150.543 112.306 149.897 115.687ZM170.888 113.622C169.884 114.626 170.032 119.222 171.124 120.948L172.04 122.396L172.66 119.924C173.343 117.203 172.019 112.492 170.888 113.622ZM111.177 116.353C111.177 116.928 116.141 118.4 121.677 119.468L124.677 120.046L122.177 118.939C120.802 118.33 119.002 117.687 118.177 117.51C117.352 117.333 115.439 116.872 113.927 116.485C112.415 116.099 111.177 116.04 111.177 116.353ZM107.464 119.695C106.773 121.494 108.032 123.875 110.494 125.428L112.177 126.49L113.927 125.388C117.09 123.396 116.475 121.42 112.164 119.727L108.069 118.118L107.464 119.695ZM127.167 120.064L124.677 120.713L127.677 121.44C129.327 121.84 131.225 122.335 131.895 122.54C132.565 122.745 133.314 122.587 133.56 122.19C134.345 120.92 129.748 119.391 127.167 120.064ZM118.818 123.492C117.789 126.175 119.94 129 123.012 129C127.826 129 130.183 124.711 125.927 123.697C124.689 123.403 122.727 122.864 121.565 122.5C120.095 122.04 119.26 122.341 118.818 123.492ZM130.655 126.07C129.895 128.464 132.564 132 135.132 132C137.307 132 139.177 130.044 139.177 127.769C139.177 125.901 138.703 125.609 133.995 124.582L131.313 123.996L130.655 126.07ZM142.567 127.427C141.655 129.802 142.585 133.5 144.094 133.5C144.873 133.5 145.94 132.21 146.466 130.634L147.421 127.769L146.049 126.9C144.091 125.66 143.193 125.796 142.567 127.427ZM150.027 130C149.944 131.1 149.832 132.525 149.777 133.167C149.572 135.56 151.794 134.919 153.456 132.105C155.701 128.304 155.643 128 152.677 128H150.177L150.027 130ZM157.745 130.206C155.892 132.852 155.664 136.338 157.382 135.765C159.029 135.216 161.38 129.243 160.228 128.532C159.725 128.221 158.608 128.974 157.745 130.206ZM162.818 131.209C162.48 132.469 162.198 134.388 162.191 135.473L162.177 137.445L163.584 135.436C165.469 132.746 165.936 129.798 164.554 129.313C163.937 129.096 163.155 129.949 162.818 131.209ZM168.345 130.687C167.702 131.887 167.195 133.686 167.217 134.684L167.257 136.5L168.78 133.69C169.618 132.145 170.126 130.346 169.908 129.693C169.68 129.009 169.016 129.431 168.345 130.687Z" fill="black"/>
<path fill-rule="evenodd" clip-rule="evenodd" d="M130.177 53.17C130.177 51.223 130.911 47.014 131.809 43.816C133.285 38.554 134.754 36.91 136.457 38.613C136.794 38.951 136.456 40.863 135.706 42.863C134.956 44.863 134.05 48.97 133.693 51.989C132.045 65.937 123.603 69.636 102.677 65.578C89.883 63.098 81.027 60.438 75.969 57.557C70.463 54.422 64.378 53.983 60.613 56.45C59.198 57.377 56.623 60.146 54.891 62.603C51.345 67.634 48.51 68.795 44.163 66.994L41.189 65.762L38.683 67.404L36.177 69.046V75.958C36.177 84.578 35.107 87.457 30.952 90.017C27.101 92.39 23.839 92.242 23.349 89.672L23 87.844L24.839 88.114C30.684 88.971 33.177 85.062 33.177 75.042V68.178L36.254 65.589C39.81 62.597 42.25 62.346 45.717 64.618L48.187 66.237L49.766 64.926C50.635 64.205 52.641 61.732 54.225 59.431C57.102 55.249 62.828 52 67.321 52C68.479 52 72.857 53.543 77.051 55.428C85.077 59.036 107.411 64 115.618 64C124.193 64 130.177 59.548 130.177 53.17Z" fill="black"/>
</svg>
