<svg width="200" height="200" viewBox="0 0 200 200" fill="none" xmlns="http://www.w3.org/2000/svg">
<path d="M132.214 36.688C131.334 32.941 130.615 29.421 130.615 28.865C130.615 28.308 131.375 28 132.303 28.178C133.952 28.496 135.445 32.941 137.092 42.432L137.774 46.364L140.444 41.895C144.748 34.692 149.641 28 150.604 28C152.822 28 152.483 30.332 149.669 34.422C147.989 36.863 146.615 39.123 146.615 39.444C146.615 39.764 148.279 39.332 150.312 38.482C153.992 36.944 156.615 37.102 156.615 38.86C156.615 39.368 154.928 40.465 152.865 41.299C141.95 45.711 136.883 52.926 133.761 68.5C132.659 74 131.285 79.737 130.711 81.25C130.135 82.763 130.025 84 130.466 84C130.907 84 136.183 83.513 142.191 82.917C155.322 81.615 159.057 80.106 170.819 71.348L179.729 64.714L180.785 65.77C181.366 66.351 181.544 67.305 181.182 67.891C180.439 69.093 167.139 79.152 164.202 80.732L162.289 81.762L164.702 82.436C170.769 84.13 179.615 88.352 179.615 89.554C179.615 92.086 177.665 92.059 172.528 89.456C165.471 85.88 158.784 84.96 151.235 86.529C147.869 87.228 141.292 88.566 136.619 89.502C131.945 90.438 126.77 91.888 125.119 92.725C118.743 95.954 112.152 101.805 106.556 109.203L100.73 116.905L108.185 124.203C112.284 128.216 117.996 132.779 120.877 134.341L126.115 137.182L133.865 136.523L141.615 135.863V137.386C141.615 138.997 138.525 139.8 130.615 140.246L126.115 140.5L133.365 148.076C137.353 152.242 140.615 156.18 140.615 156.826C140.615 159.782 136.87 157.313 129.122 149.25L120.715 140.5L121.304 145.75L121.894 151H120.3C119.245 151 118.475 149.731 118.026 147.25C117.652 145.188 116.71 141.881 115.933 139.902L114.519 136.304L105.817 131.743C101.031 129.235 95.3145 126.659 93.1145 126.019L89.1145 124.856L80.2075 128.012C65.0815 133.371 53.7745 141.982 49.0045 151.775C48.0065 153.824 46.4545 159.1 45.5555 163.5L43.9205 171.5L42.2675 171.823L40.6145 172.147L40.6315 169.823C40.6675 165.062 43.5445 154.071 46.0495 149.128C51.4415 138.488 64.0465 129.183 80.1145 123.982C89.2145 121.036 97.1825 115.721 101.012 110.042C105.774 102.979 116.611 92.643 121.957 90.066C124.745 88.722 126.327 87.44 125.684 87.043L124.569 86.354L125.972 82.927C128.886 75.811 128.803 74.51 125.738 79.245C116.322 93.788 101.436 103.84 83.8755 107.514C79.5305 108.423 76.5245 108.538 74.1575 107.884L70.7295 106.938L66.4215 111.243C64.0525 113.61 59.8645 116.658 57.1145 118.016L52.1145 120.484L41.6145 120.492L31.1145 120.5L24.9315 117.147C21.5315 115.302 18.5015 113.148 18.1985 112.359C17.1545 109.637 20.3345 109.908 25.2435 112.96C28.0935 114.732 32.7415 116.475 36.2775 117.097L42.3875 118.174L48.6695 116.564C59.3935 113.817 65.6375 108.512 70.4575 98.054L73.0175 92.5L72.9975 85.5L72.9775 78.5L70.7955 74.062C68.2715 68.926 68.0535 67 69.9995 67C70.7605 67 72.4695 69.298 73.7965 72.106L76.2085 77.211L78.9255 73.106C80.4205 70.848 82.0595 69 82.5695 69C84.7435 69 84.6335 71.373 82.2945 74.908C80.9135 76.993 79.3365 80.455 78.7875 82.6C78.2395 84.745 76.7825 90.256 75.5495 94.846L73.3085 103.193L74.7115 104.125C78.4125 106.582 95.9885 100.845 106.677 93.69C115.074 88.068 121.581 79.919 127.829 67.195L132.89 56.891L133.351 50.195C133.641 45.99 133.218 40.967 132.214 36.688Z" fill="black"/>
</svg>
