<svg width="200" height="200" viewBox="0 0 200 200" fill="none" xmlns="http://www.w3.org/2000/svg">
<path fill-rule="evenodd" clip-rule="evenodd" d="M49.143 41.9446C51.335 31.3316 57.495 22.8006 65.475 19.3256C70.208 17.2656 76.157 17.6496 85.251 20.6046C96.235 24.1726 103.871 24.1726 114.855 20.6046C125.411 17.1756 131.116 17.1386 137.775 20.4566C143.354 23.2366 146.993 27.3506 150.35 34.6746L152.52 39.4076L152.422 48.9076L152.325 58.4076L148.732 69.4076C146.757 75.4576 144.604 84.6286 143.949 89.7876L142.758 99.1676L144.541 115.709C146.553 134.387 146.191 144.038 143.103 154.02C140.767 161.571 137.793 165.908 134.949 165.908C132.941 165.908 132.679 165.489 131.588 160.54C130.468 155.46 130.01 158.393 130.904 164.925L131.77 171.261L135.428 174.613C137.439 176.456 140.428 178.233 142.069 178.561C143.796 178.907 145.053 179.792 145.053 180.664V182.17L141.46 181.587C136.405 180.766 131.457 176.638 128.475 170.755C127.074 167.989 122.876 156.654 119.146 145.567C107.11 109.784 102.364 103.365 96.6609 115.158C91.783 125.245 91.266 135.998 94.631 157.408C95.409 162.358 96.047 169.033 96.049 172.241L96.053 178.075L94.803 177.663C94.042 177.412 93.332 174.544 92.988 170.329C92.678 166.523 91.599 157.193 90.591 149.597L88.759 135.786L89.903 127.597C90.606 122.563 92.138 117.192 93.879 113.658C97.029 107.264 96.339 106.32 91.95 111.018C86.1469 117.231 84.839 127.234 86.473 152.908L87.333 166.408L86.159 171.867C84.823 178.075 82.743 180.908 79.52 180.908C76.371 180.908 75.288 179.174 73.696 171.583L72.298 164.913L68.426 160.382C59.773 150.256 58.02 147.542 56.08 141.261C53.382 132.525 53.517 123.352 56.573 107.908C59.421 93.5096 59.597 88.0086 57.388 82.4076C52.818 70.8186 49.98 61.4416 49.044 54.8456L48 47.4816L49.143 41.9446ZM69.553 21.8386C64.942 22.9476 62.534 24.5276 58.792 28.8996C52.325 36.4546 50.383 48.6606 53.642 61.2636C54.516 64.6426 57.191 72.3676 59.586 78.4286C61.982 84.4906 64.433 92.5296 65.035 96.2936L66.128 103.138L65.039 113.035C63.594 126.168 64.827 134.492 70.442 149.506C72.89 156.052 75.567 164.558 76.391 168.408L77.89 175.408L77.971 171.284C78.016 169.016 76.907 161.816 75.506 155.284C73.961 148.075 72.741 138.495 72.403 130.908L71.847 118.408L73.8849 108.908C75.0059 103.683 76.669 96.0326 77.58 91.9076L79.236 84.4076L78.018 74.3286L76.8 64.2496L77.955 62.0906C79.748 58.7406 83.554 58.3536 91.028 60.7606C99.389 63.4536 102.796 63.4536 110.765 60.7616L117.117 58.6156L119.605 59.7496C120.974 60.3726 122.57 62.1256 123.152 63.6456L124.212 66.4076L122.752 75.9076C120.982 87.4236 121.339 90.3126 127.565 114.908L132.249 133.408L132.401 144.158C132.485 150.07 132.829 154.908 133.166 154.908C134.422 154.908 136.544 142.152 136.493 134.908C136.464 130.783 135.821 121.635 135.063 114.578L133.686 101.749L134.932 95.5776C135.617 92.1846 138.153 85.1326 140.567 79.9076C148.405 62.9406 151.123 47.7276 148.008 38.2616C145.05 29.2706 138.213 22.9086 129.871 21.3836L126.188 20.7106L116.214 23.8086C103.782 27.6716 96.219 27.8626 86.478 24.5596C77.837 21.6286 73.395 20.9146 69.553 21.8386ZM81.069 63.3886C80.287 64.3306 80.052 66.4256 80.422 69.1386C80.743 71.4866 81.288 76.3326 81.634 79.9076L82.264 86.4076L79.169 98.8136C77.466 105.638 75.86 114.863 75.598 119.314L75.1219 127.408L76.103 121.908C78.378 109.16 82.814 100.049 89.695 93.9916C95.426 88.9466 98.689 88.2106 104.306 90.6956C115.364 95.5866 125.736 117.789 129.397 144.408C129.624 146.058 129.617 144.112 129.383 140.084C129.135 135.827 126.673 123.756 123.505 111.262C120.506 99.4376 118.061 88.3336 118.071 86.5856C118.082 84.8376 118.761 79.6126 119.581 74.9756C121.845 62.1686 120.883 60.9256 111.07 63.9796C103.181 66.4346 97.844 66.4156 90.553 63.9076C83.599 61.5146 82.666 61.4636 81.069 63.3886ZM138.945 91.1576C137.517 96.2806 137.412 104.878 138.503 127.408L139.327 144.408L137.19 152.169C136.015 156.438 135.067 160.713 135.085 161.669L135.117 163.408L136.63 161.408C137.463 160.308 139.11 156.258 140.291 152.408L142.439 145.408L142.491 134.408C142.52 128.358 141.92 118.319 141.158 112.1C140.396 105.881 140.035 97.6676 140.355 93.8496C140.675 90.0316 140.755 86.9076 140.533 86.9076C140.312 86.9076 139.597 88.8196 138.945 91.1576ZM93.545 94.7496C86.089 99.2966 80.63 111.199 79.061 126.334C78.027 136.304 78.707 145.095 81.734 160.908L83.553 170.408L83.875 163.908C84.052 160.333 83.701 151.703 83.094 144.731L81.991 132.053L83.054 125.402C84.396 116.998 87.308 110.77 91.692 106.92C95.551 103.532 96.735 103.33 101.382 105.272C105.563 107.019 109.71 111.949 112.85 118.908C115.628 125.065 125.053 152.578 125.053 154.532C125.053 155.224 125.516 156.076 126.083 156.426C127.743 157.453 126.172 141.684 123.452 130.031C120.284 116.455 114.694 104.604 108.36 98.0326L103.421 92.9076L99.987 92.9116C98.098 92.9136 95.2 93.7406 93.545 94.7496ZM60.823 101.908C60.524 103.833 59.506 109.458 58.562 114.408C57.363 120.697 57.024 125.817 57.437 131.408L58.027 139.408L60.984 145.418C63.547 150.625 71.387 159.99 69.766 155.908C69.4875 155.205 68.2386 152.06 66.8197 148.488L66.067 146.593C62.023 136.409 60.603 125.212 61.795 112.908C62.301 107.683 62.412 102.283 62.042 100.908L61.369 98.4076L60.823 101.908Z" fill="black"/>
</svg>
