<svg width="200" height="200" viewBox="0 0 200 200" fill="none" xmlns="http://www.w3.org/2000/svg">
<path fill-rule="evenodd" clip-rule="evenodd" d="M28.281 44.4505C31.908 41.1745 33.316 40.5215 38.748 39.6005C41.153 39.1925 46.182 40.2125 52.124 42.3135C57.062 44.0605 66.438 44.3654 69.232 42.8704C70.251 42.3244 73.548 41.2365 76.56 40.4525L82.035 39.0265L86.372 40.0004C92.403 41.3554 97.045 45.2295 99.846 51.2445L102.228 56.3615L102.233 62.3615C102.238 69.4465 101.27 73.2905 96.443 85.3615L92.844 94.3615L93.075 111.861C93.319 130.32 92.267 139.971 89.074 148.56C86.259 156.136 82.232 156.675 78.81 149.934C78.092 148.519 76.077 142.216 74.333 135.926C71.067 124.149 65.215 111.446 62.591 110.439C60.162 109.507 57.578 111.548 55.346 116.159C52.306 122.439 51.245 129.828 51.512 142.861L51.748 154.361L49.884 158.111C46.794 164.328 42.526 162.459 40.242 153.887C39.586 151.426 37.708 146.754 36.067 143.504C31.573 134.601 30.24 126.38 30.51 109.241L30.744 94.3615L26.311 84.3615L21.879 74.3615L21.44 65.5795L21 56.7985L22.683 52.3935C23.608 49.9705 26.127 46.3965 28.281 44.4505ZM34.748 44.2735C25.173 48.5285 21.943 60.1725 26.361 74.5065C30.475 87.8555 32.758 90.3955 43.748 93.8465C48.62 95.3765 50.114 96.5925 48.081 97.3725C47.255 97.6895 43.692 96.9015 40.163 95.6215L33.748 93.2945L33.809 109.328C33.875 126.636 34.843 132.518 39.246 142.361C40.722 145.661 42.736 150.794 43.721 153.767L45.512 159.171L46.844 156.767C47.773 155.091 48.188 150.072 48.213 140.216L48.248 126.072L50.221 119.684C52.57 112.079 57.074 106.861 61.289 106.861H64.092L67.608 110.968C71.299 115.281 74.347 122.922 78.735 138.861C80.173 144.086 81.989 149.008 82.772 149.798L84.194 151.236L85.696 147.639C88.894 139.987 89.575 134.086 89.661 113.325L89.748 92.2885L84.248 94.5515C78.625 96.8645 72.248 97.5985 72.248 95.9325C72.248 95.4215 74.667 94.5015 77.623 93.8875C80.579 93.2735 85.096 91.4414 87.659 89.8154L92.32 86.8605L94.18 82.5195C97.212 75.4465 99.542 63.3065 98.807 58.4085C97.546 49.9955 90.042 42.8615 82.454 42.8615C80.883 42.8615 76.377 43.9865 72.441 45.3615C63.497 48.4865 60.287 48.4885 50.536 45.3745C41.725 42.5605 39.025 42.3725 34.748 44.2735Z" fill="black"/>
<path fill-rule="evenodd" clip-rule="evenodd" d="M115.655 48.4295C118.661 43.3005 120.12 42.0285 124.989 40.2905C129.847 38.5575 130.945 38.5625 136.839 40.3505C143.099 42.2495 147.694 42.2455 154.949 40.3335C165.479 37.5575 172.773 40.4955 176.793 49.1295C181.049 58.2715 179.771 69.1065 173.171 79.8325C171.553 82.4615 170.248 85.9995 170.248 87.7545C170.248 92.7805 167.822 97.5004 164.856 98.2454C162.49 98.8384 161.04 101.861 163.12 101.861C163.6 101.861 164.297 103.765 164.668 106.09L165.345 110.317L163.796 111.449C161.921 112.82 161.845 114.228 163.498 116.935L164.748 118.983L163.032 120.257L161.316 121.531L162.171 126.936L163.025 132.341L161.742 134.174C160.96 135.289 160.663 137.537 160.982 139.916L161.506 143.825L159.952 144.421C159.082 144.755 158.089 146.845 157.697 149.165C157.234 151.903 155.883 154.426 153.722 156.587L150.448 159.861H145.748H141.048L137.748 156.262C135.933 154.282 133.711 151.789 132.81 150.723L131.172 148.785L131.821 145.323C132.212 143.241 132.07 141.861 131.466 141.861C129.954 141.861 129.076 138.773 130.202 137.416C130.873 136.608 130.69 135.509 129.633 134L128.074 131.775L129.284 130.318L130.493 128.861L129.403 127.548C128.793 126.813 128.568 124.666 128.891 122.675C129.238 120.534 129.025 118.841 128.356 118.428C127.669 118.003 127.477 116.282 127.854 113.926C128.195 111.793 128.029 109.843 127.477 109.502C126.934 109.167 126.717 106.88 126.994 104.42L127.498 99.9475L124.873 96.8275L122.248 93.7085V89.7095V85.7114L118.307 79.0365C111.44 67.4075 110.55 57.1405 115.655 48.4295ZM123.698 44.8494C122.021 45.9244 119.61 48.6525 118.34 50.9115L116.031 55.0195L116.414 61.7925L116.797 68.5645L121.022 76.6625C123.354 81.1305 125.248 86.1565 125.248 87.8765C125.248 89.5905 125.714 91.8634 126.283 92.9274L127.318 94.8615H145.661H164.003L164.995 93.6115C165.54 92.9245 166.209 90.2785 166.481 87.7335C166.791 84.8295 168.318 80.9185 170.582 77.2335C174.675 70.5705 176.766 62.4375 175.763 57.0875C174.128 48.3755 169.019 42.8725 162.548 42.8535C161.008 42.8485 156.71 43.6235 152.998 44.5745L146.248 46.3045L139.498 44.5745C130.875 42.3645 127.484 42.4234 123.698 44.8494ZM130.785 102.111C131.168 103.899 131.542 105.432 131.615 105.519C131.688 105.607 137.373 104.832 144.248 103.797C151.123 102.763 157.085 101.904 157.498 101.889C157.911 101.873 158.248 101.186 158.248 100.361V98.8615H144.169H130.089L130.785 102.111ZM145.463 107.349C138.157 108.585 131.958 109.817 131.69 110.086C130.709 111.067 132.507 113.86 134.105 113.838C136.536 113.803 160.441 109.002 161.008 108.434C161.705 107.738 160.463 104.838 159.529 104.981C159.1 105.047 152.77 106.112 145.463 107.349ZM144.748 115.735C138.148 117.179 132.86 118.698 132.998 119.111C133.136 119.524 133.248 120.47 133.248 121.215V122.566L145.748 120.071L158.248 117.575V115.218C158.248 113.922 157.911 112.917 157.498 112.985C157.085 113.053 151.348 114.291 144.748 115.735ZM143.824 124.207C138.366 125.392 133.716 126.924 133.491 127.611C132.96 129.233 134.563 129.187 143.433 127.327C154.592 124.987 158.248 123.876 158.248 122.822C158.248 121.454 155.128 121.753 143.824 124.207ZM152.748 128.86C151.098 129.304 146.261 130.417 141.998 131.333C136.621 132.488 134.248 133.445 134.248 134.461C134.248 136.879 136.263 136.898 147.248 134.578L157.748 132.361V130.444C157.748 128.129 156.696 127.796 152.748 128.86ZM144.472 138.853C139.92 139.803 136.001 140.775 135.762 141.014C135.523 141.253 135.59 142.454 135.912 143.683C136.295 145.15 137.054 145.754 138.122 145.441C139.016 145.18 143.455 144.415 147.985 143.742L156.222 142.519L156.799 140.699C157.545 138.349 156.575 136.826 154.439 136.993C153.509 137.065 149.024 137.903 144.472 138.853ZM146.248 147.553C142.123 148.353 138.348 149.397 137.86 149.873C137.348 150.371 138.319 152.086 140.15 153.916L143.328 157.095L146.538 156.479C150.407 155.737 154.248 151.664 154.248 148.305C154.248 146.961 154.136 145.915 153.998 145.98C153.86 146.046 150.373 146.754 146.248 147.553Z" fill="black"/>
<path fill-rule="evenodd" clip-rule="evenodd" d="M122.431 56.3834C122.211 54.6214 123.03 52.9255 125.104 50.8515C127.027 48.9285 129.103 47.8664 130.921 47.8754C135.233 47.8954 138.248 48.9475 138.248 50.4315V51.7675L133.465 51.2005L128.681 50.6345L127.395 52.1835C126.688 53.0365 125.803 54.8785 125.429 56.2785C124.547 59.5755 122.837 59.6354 122.431 56.3834Z" fill="black"/>
<path fill-rule="evenodd" clip-rule="evenodd" d="M33.248 55.4045C33.248 54.5065 34.353 52.6665 35.703 51.3165C38.355 48.6645 43.773 48.0014 47.314 49.8964C50.72 51.7194 49.4 52.7855 44.46 52.2005L39.673 51.6334L36.46 54.3364L33.248 57.0394V55.4045Z" fill="black"/>
</svg>
