<svg width="200" height="200" viewBox="0 0 200 200" fill="none" xmlns="http://www.w3.org/2000/svg">
<path fill-rule="evenodd" clip-rule="evenodd" d="M34.7516 53.2C42.9196 36.363 58.4996 25.71 80.3486 22.023C82.9166 21.59 91.5836 21.182 99.6076 21.118L114.198 21L122.108 22.999C133.538 25.888 143.619 31.17 150.427 37.835C157.379 44.642 158.209 46.168 163.543 61.953L167.705 74.271L167.112 77.636C166.785 79.486 166.254 82.483 165.932 84.297L165.347 87.593L169.932 92.694C174.949 98.273 175.692 101.55 172.552 104.239C170.185 106.266 164.256 117.715 164.772 119.263C164.974 119.868 166.687 120.891 168.578 121.538L172.018 122.714L171.732 125.107C171.251 129.125 171.323 130.228 172.588 138.202L173.81 145.905L172.095 148.522C168.872 153.442 167.462 160.074 168.132 167.174L168.761 173.848L166.061 176.548L163.361 179.248L155.69 178.756L148.018 178.265L134.518 173.714C127.093 171.211 118.543 168.614 115.518 167.943C109.253 166.552 105.559 164.271 102.411 159.849L100.224 156.778L99.4216 148.083C98.6306 139.511 94.2176 125 92.4016 125C90.8106 125 91.5186 129.444 93.5176 132C95.8616 134.997 96.0026 136 94.0796 136C93.2886 136 91.1876 133.975 89.4106 131.5C87.6326 129.025 85.8046 127 85.3476 127C84.8916 127 84.5176 128.767 84.5176 130.927V134.855L81.8826 136.927C78.5326 139.563 77.8156 139.532 72.1136 136.5C69.5276 135.125 66.1976 133.995 64.7146 133.988C61.3246 133.973 52.7096 131.707 49.4716 129.979C48.1216 129.259 43.9206 125.931 40.1346 122.585L33.2526 116.5L30.3846 110.27C23.2606 94.798 24.8886 73.531 34.7516 53.2ZM84.3316 25.078C63.4936 28.135 49.8996 35.921 40.5586 50.148C37.3006 55.109 33.0566 65.948 31.1206 74.25L30.4796 77H31.9796C32.8046 77 33.7756 78.238 34.1366 79.75C34.4986 81.262 35.0696 82.95 35.4056 83.5C35.7426 84.05 36.0176 85.398 36.0176 86.495C36.0176 87.593 36.6866 88.493 37.5036 88.495C38.3216 88.498 39.1586 89.4 39.3656 90.5C39.5716 91.6 40.3146 92.831 41.0156 93.236C41.7166 93.641 42.5796 95.517 42.9336 97.405L43.5776 100.838L46.7976 102.707C49.9246 104.521 53.5176 104.696 53.5176 103.034C53.5176 101.608 56.7166 100.92 58.0806 102.052L59.3896 103.139L61.4536 102.034C63.5286 100.924 64.1156 98.109 63.6716 91.394C63.5546 89.61 64.1166 87.748 64.9926 87.021C65.8316 86.325 66.5176 84.896 66.5176 83.846C66.5176 82.796 67.2266 81.665 68.0946 81.332C68.9616 80.999 70.0756 79.664 70.5696 78.364C71.0636 77.064 72.2076 76 73.1106 76C74.0146 76 76.2696 74.669 78.1226 73.042C84.2526 67.66 94.8886 66.617 102.517 70.65C104.442 71.667 106.242 72.742 106.517 73.037C106.793 73.333 108.593 73.48 110.518 73.364C112.443 73.248 115.022 73.119 116.249 73.077L118.48 73L117.864 68.25C117.526 65.637 116.634 62.79 115.883 61.921C115.132 61.053 114.518 59.365 114.518 58.171C114.518 56.977 114.174 56 113.754 56C113.334 56 111.924 53.755 110.622 51.012L108.254 46.023L109.587 44.417L110.919 42.811L108.563 41.034C107.158 39.974 106.439 38.647 106.784 37.75C107.102 36.921 106.935 35.817 106.413 35.295C105.892 34.774 105.189 32.019 104.852 29.173L104.239 24L97.1286 24.122C93.2176 24.189 87.4586 24.619 84.3316 25.078ZM106.823 25.353C107.144 26.188 106.868 27.059 106.212 27.289C105.397 27.575 105.624 28.39 106.929 29.86C107.979 31.044 108.546 32.306 108.187 32.664C107.829 33.023 108.032 33.914 108.639 34.645C109.245 35.376 109.456 36.718 109.107 37.627C108.706 38.673 109.216 39.801 110.496 40.697C112.771 42.291 113.151 44.576 111.268 45.341C110.458 45.669 110.37 46.139 111.018 46.674C111.568 47.128 112.584 48.512 113.276 49.75L114.535 52H113.352C112.702 52 113.195 53.092 114.448 54.426C115.702 55.76 116.426 57.34 116.058 57.936C115.689 58.532 116.317 60.201 117.453 61.645C118.821 63.384 119.518 65.738 119.518 68.622V72.975L123.698 75.614C125.997 77.065 129.372 78.877 131.198 79.64C133.024 80.403 134.518 81.295 134.518 81.622C134.518 82.833 128.877 80.768 124.43 77.929L119.843 75H115.18C112.616 75 110.525 75.337 110.534 75.75C110.543 76.163 111.652 78.3 112.997 80.5C118.084 88.819 119.07 93.935 117.091 101.75L116.268 105H120.328C122.561 105 125.542 104.561 126.953 104.025L129.518 103.05V97.66C129.518 93.957 130.094 91.523 131.358 89.885C136.068 83.781 136.78 74.749 133.064 68.25C130.389 63.572 131.212 62.524 134.388 66.562C137.366 70.347 138.817 75.658 138.249 80.694L137.747 85.151L139.26 85.731C140.132 86.066 141.462 85.437 142.396 84.249C144.8 81.192 151.485 77 153.958 77C156.182 77 158.518 78.699 158.518 80.317C158.518 80.821 157.549 80.98 156.365 80.67C153.508 79.923 149.527 82.087 145.666 86.484L142.518 90.07V94.584C142.518 99.567 144.561 104.419 147.063 105.379C150.072 106.533 151.477 106.01 152.107 103.5C152.865 100.481 154.518 100.183 154.518 103.066C154.518 106.91 152.647 109 149.205 109C144.718 109 141.982 106.782 139.971 101.515L138.257 97.027L138.922 92.014L139.587 87L138.302 87.012C137.596 87.019 136.005 88.588 134.768 90.498L132.518 93.972V99.286C132.518 104.701 131.341 107 128.568 107C127.716 107 125.78 108.551 124.268 110.447C121.187 114.308 120.961 115 122.779 115C123.472 115 127.099 117.052 130.838 119.561C135.56 122.728 138.454 124.027 140.314 123.811L142.992 123.5L145.369 119.18C146.817 116.548 149.064 114.23 151.119 113.25C155.942 110.951 156.547 112.528 152.212 116.1C150.18 117.775 148.518 119.763 148.518 120.517C148.518 122.657 144.289 126.861 141.476 127.518C139.726 127.927 137.157 127.177 133.226 125.11L127.518 122.107V123.914C127.518 124.908 127.232 127.809 126.882 130.36L126.246 135H129.215C130.849 135 132.488 135.303 132.859 135.674C134.119 136.934 156.134 138.161 158.018 137.076C158.568 136.759 161.043 136.5 163.518 136.5H168.018V130.753V125.006L166.268 125.003C165.305 125.001 163.611 124.093 162.503 122.985L160.488 120.97L161.13 118.235C161.483 116.731 162.9 113.384 164.279 110.797L166.785 106.094L163.401 99.421C161.541 95.751 159.231 92.528 158.268 92.258C157.305 91.988 156.518 91.144 156.518 90.383C156.518 88.661 160.505 88.53 160.553 90.25C160.573 90.938 162.299 94.308 164.39 97.74L168.191 103.98L169.488 101.555L170.786 99.131L167.346 95.112C165.454 92.901 163.284 89.931 162.524 88.511L161.142 85.929L162.33 82.643C164.074 77.821 163.812 74.639 160.928 65.61C155.821 49.621 154.369 46.734 148.553 41C139.787 32.359 126.763 26.616 111.13 24.498L106.241 23.836L106.823 25.353ZM85.8816 71.056C81.7796 72.357 79.1956 73.842 78.0866 75.535C77.1716 76.932 75.6636 77.94 74.7226 77.784C73.6246 77.601 72.9086 78.264 72.7116 79.648C72.5426 80.829 71.5306 82.025 70.4616 82.304C69.3656 82.591 68.5176 83.673 68.5176 84.784C68.5176 85.868 67.8756 87.288 67.0906 87.939C66.1436 88.726 65.8446 90.237 66.2006 92.435C66.4966 94.256 66.2806 96.028 65.7216 96.374C65.1626 96.719 64.9156 97.807 65.1726 98.79C65.8796 101.492 62.1436 104.374 58.7946 103.711C56.9296 103.341 55.2676 103.77 53.7326 105.018L51.4486 106.877L51.9826 109.438C52.1855 110.41 52.4788 111.814 52.7387 113.058C52.8555 113.617 52.9656 114.144 53.0576 114.585C53.6536 117.433 57.1016 121.028 62.5966 124.529C64.5646 125.783 68.3326 128.676 70.9686 130.958C75.9836 135.298 78.9646 135.854 80.8766 132.804L81.9396 131.107L80.7236 125.218L79.5066 119.329L80.6176 116.143C82.3496 111.174 87.1576 109.459 90.6056 112.58L92.3516 114.159L94.6136 112.949L96.8756 111.738L100.242 113.551L103.607 115.363L108.462 113.617C111.432 112.549 114.617 112.096 116.667 112.45L120.018 113.029L121.931 110.361L123.843 107.693L117.431 108.374C95.5856 110.693 87.4696 110.11 82.0296 105.83C77.8086 102.51 79.2056 102.106 85.7566 104.753L91.9966 107.273L101.531 106.692C106.774 106.373 111.837 105.815 112.78 105.453C114.512 104.788 116.742 98.468 116.759 94.177C116.773 90.484 109.338 76.888 106.768 75.908C105.53 75.436 104.518 74.588 104.518 74.025C104.518 73.461 103.933 73 103.218 73C102.503 73 101.356 72.438 100.668 71.75C99.9806 71.063 98.4286 70.451 97.2176 70.391C96.0076 70.331 94.3426 70.018 93.5176 69.695C92.6926 69.373 89.2566 69.985 85.8816 71.056ZM29.8536 80.567C28.5536 83.956 30.2816 100.501 32.5626 106.5L34.8436 112.5L42.3316 119.637C49.9016 126.852 53.1186 128.525 62.2576 129.997L66.4966 130.68L65.3146 129.255C64.6646 128.472 62.1806 126.488 59.7936 124.846C55.1366 121.642 50.5176 115.279 50.5176 112.067C50.5176 108.659 48.2686 104.976 45.8116 104.359C43.4406 103.764 40.5176 99.451 40.5176 96.55C40.5176 95.697 39.8426 95 39.0176 95C38.1026 95 37.5176 94.067 37.5176 92.607C37.5176 91.291 36.8426 89.955 36.0176 89.638C35.1926 89.322 34.5176 87.95 34.5176 86.59C34.5176 85.231 34.0676 83.84 33.5176 83.5C32.9676 83.16 32.5176 82.009 32.5176 80.941C32.5176 78.615 30.7006 78.36 29.8536 80.567ZM83.4386 116.147L82.2896 118.295L83.4086 122.032L84.5286 125.769L87.2706 126.293C88.8166 126.589 90.3346 126.312 90.7496 125.659C91.8876 123.871 91.6826 115.78 90.5176 116.5C89.9676 116.84 89.5176 117.991 89.5176 119.059C89.5176 120.127 89.0956 121 88.5806 121C88.0646 121 87.8986 119.425 88.2116 117.5L88.7796 114H86.6836C85.5306 114 84.0706 114.966 83.4386 116.147ZM95.8566 117.559C95.4806 118.538 96.7846 123.869 98.8726 129.892L102.55 140.5L102.534 146.282C102.506 156.311 106.355 161.846 114.903 164.072C117.166 164.662 126.025 167.385 134.588 170.126C143.152 172.866 152.602 175.359 155.588 175.667L161.018 176.227L163.38 174.313L165.743 172.4L164.593 166.863C163.798 163.031 163.756 160.505 164.456 158.663L165.468 156L162.743 155.829C158.137 155.54 157.09 155.386 155.018 154.698C153.18 154.086 144.455 152.607 136.913 151.629C135.206 151.407 132.809 150.691 131.588 150.037L129.367 148.849L130.367 150.674C130.917 151.678 132.344 153.32 133.538 154.322C136.314 156.652 135.29 157.751 131.989 155.985C128.69 154.219 123.736 146.675 122.875 142.106C122.501 140.123 122.732 134.783 123.387 130.24L124.578 121.981L123.435 119.845L122.292 117.709L120.263 121.258C115.647 129.336 105.789 128.916 101.044 120.439C98.5986 116.071 96.8086 115.078 95.8566 117.559ZM107.748 117.755C105.95 118.649 104.636 119.858 104.828 120.441C105.486 122.432 110.105 124.32 112.715 123.666C115.484 122.97 118.975 118.549 118.001 116.972C117.088 115.495 111.42 115.928 107.748 117.755ZM126.214 138.349C125.479 140.265 126.323 141 129.258 141H131.665L131.331 139.25C130.916 137.07 126.971 136.376 126.214 138.349ZM134.622 138.914C132.762 140.092 133.97 143 136.32 143C138.95 143 139.606 142.034 138.448 139.869C137.334 137.788 136.665 137.621 134.622 138.914ZM159.518 141.417V145H161.081H162.645L162.331 141.827C161.879 137.243 159.518 136.898 159.518 141.417ZM168.357 138.494C167.563 139.288 168.66 145 169.606 145C170.08 145 170.19 143.538 169.849 141.75C169.144 138.046 169.038 137.814 168.357 138.494ZM141.518 141.506V144H144.518C149.258 144 148.212 140.055 143.268 139.285L141.518 139.013V141.506ZM149.519 140.498C148.02 142.305 148.898 145 150.987 145C151.944 145 152.518 144.084 152.518 142.559C152.518 139.511 151.13 138.557 149.519 140.498ZM154.518 142C154.518 144 155.018 145 156.018 145C157.588 145 157.939 143.262 156.911 140.582C155.909 137.97 154.518 138.794 154.518 142ZM164.518 141.941C164.518 143.855 165.028 145 165.879 145C166.794 145 167.083 144.175 166.76 142.485C166.051 138.777 164.518 138.404 164.518 141.941ZM126.518 143.878C126.518 144.36 127.227 145.344 128.094 146.063L129.67 147.371L130.528 145.983C131 145.22 131.164 144.237 130.893 143.798C130.223 142.714 126.518 142.781 126.518 143.878ZM133 146.03C132.611 146.659 132.741 147.623 133.29 148.172C134.746 149.628 139.018 148.754 139.018 147C139.018 145.186 134.019 144.38 133 146.03ZM145.018 146.734C143.918 146.945 142.405 147.321 141.655 147.57L140.293 148.024L141.528 149.512C143.255 151.593 146.252 151.366 147.486 149.061C148.66 146.865 147.931 146.177 145.018 146.734ZM150.518 149.583C150.518 152.716 152.866 152.373 153.338 149.172C153.55 147.729 153.13 147 152.088 147C151.067 147 150.518 147.903 150.518 149.583ZM156.201 147.65C155.826 148.026 155.518 149.421 155.518 150.75C155.518 153.518 157.818 153.365 158.362 150.561C158.745 148.585 157.263 146.588 156.201 147.65ZM160.518 150.5C160.518 151.875 160.968 153 161.518 153C162.068 153 162.518 151.875 162.518 150.5C162.518 149.125 162.068 148 161.518 148C160.968 148 160.518 149.125 160.518 150.5ZM165.125 149.582C164.032 152.431 164.551 153.541 166.05 151.559C166.857 150.491 167.518 149.254 167.518 148.809C167.518 147.377 165.752 147.948 165.125 149.582Z" fill="black"/>
</svg>
