<svg width="200" height="200" viewBox="0 0 200 200" fill="none" xmlns="http://www.w3.org/2000/svg">
<path fill-rule="evenodd" clip-rule="evenodd" d="M69.9945 142.57C71.0875 140.421 76.9635 126.074 80.5005 116.921L81.3695 114.671H85.4195H89.4695L90.3565 116.921C90.8445 118.159 94.1705 126.034 97.7485 134.421L104.254 149.671H100.022H95.7895L94.1205 146.171L92.4515 142.671L86.1855 142.686C79.0075 142.704 77.9395 143.174 76.5065 146.941L75.4695 149.671H71.3765H67.2845L67.9785 147.421C68.3605 146.183 69.2675 144 69.9945 142.57ZM85.1235 125.342C84.8065 125.854 83.6245 128.613 82.4975 131.473L80.4485 136.671H85.4345C88.1765 136.671 90.4195 136.522 90.4195 136.341C90.4195 134.716 85.5625 124.63 85.1235 125.342Z" fill="black"/>
<path fill-rule="evenodd" clip-rule="evenodd" d="M109.42 149.671V132.171V114.671H113.42H117.42V132.171V149.671H113.42H109.42Z" fill="black"/>
<path fill-rule="evenodd" clip-rule="evenodd" d="M129.769 55.5134C128.363 52.3804 127.51 49.3344 127.875 48.7444C129.231 46.5504 130.602 47.8364 133.491 54.0094C138.416 64.5344 140.507 77.3944 138.456 84.5464L137.492 87.9073L138.822 91.0914C139.553 92.8414 142.682 98.1953 145.774 102.988C158.181 122.221 158.519 127.101 147.597 129.286C143.508 130.103 143.267 130.562 144.614 134.951L145.722 138.561L144.131 140.989C143.256 142.324 142.784 144.346 143.081 145.481C143.378 146.617 142.901 148.575 142.02 149.831C141.14 151.088 140.417 153.703 140.414 155.644C140.401 164.212 136.579 170.115 129.42 172.627C127.495 173.303 120.858 174.102 114.67 174.403C108.458 174.705 102.694 175.482 101.797 176.137C100.904 176.79 99.1645 180.44 97.9315 184.248C96.4045 188.964 95.1215 191.283 93.9075 191.523L92.1245 191.874L92.6805 188.523C93.8385 181.531 97.4965 173.682 100.247 172.287C101.808 171.495 107.702 170.723 114.42 170.432C126.928 169.89 132.493 168.272 134.455 164.605C135.766 162.157 137.579 151.534 137.788 145.082C137.86 142.833 138.514 140.273 139.241 139.394C140.151 138.292 140.354 136.416 139.895 133.352L139.228 128.907L140.56 128.039C141.292 127.562 143.923 126.496 146.406 125.671C149.549 124.627 151.008 123.555 151.211 122.143C151.377 120.982 148.516 115.35 144.524 108.978C140.687 102.852 136.563 95.9114 135.359 93.5524L133.171 89.2624L134.295 84.3904C134.914 81.7113 135.42 78.0724 135.42 76.3054C135.42 71.8684 132.827 62.3284 129.769 55.5134Z" fill="black"/>
<path fill-rule="evenodd" clip-rule="evenodd" d="M17.4385 115.193C15.9865 113.444 15.4265 97.9814 16.7405 95.9214C18.5385 93.1024 19.2095 95.1804 19.6505 104.921C20.1315 115.563 19.6395 117.846 17.4385 115.193Z" fill="black"/>
<path fill-rule="evenodd" clip-rule="evenodd" d="M22.8085 129.009C20.9445 125.619 19.4195 122.357 19.4195 121.759C19.4195 121.16 20.0725 120.671 20.8715 120.671C23.2735 120.671 29.3695 132.304 30.9795 139.957C33.3745 151.34 37.4305 156.029 47.1095 158.602C51.9145 159.879 52.0725 160.223 52.8965 171.171C53.2275 175.571 53.7265 180.633 54.0045 182.421L54.5105 185.671H52.5895H50.6695L50.0445 182.546C49.7005 180.827 49.3935 177.34 49.3615 174.796C49.3305 172.252 48.9925 168.451 48.6115 166.35L47.9195 162.529L42.4195 160.678C38.5755 159.385 35.8065 157.579 33.2225 154.68L29.5255 150.533L27.8615 142.852C26.9465 138.627 24.6735 132.398 22.8085 129.009Z" fill="black"/>
<path fill-rule="evenodd" clip-rule="evenodd" d="M23.4435 56.9314C30.4745 42.6714 44.2255 30.3674 58.9305 25.1794C66.8555 22.3834 67.0965 22.3394 67.8555 23.5674C68.1595 24.0604 65.3735 25.6764 61.6645 27.1604C38.1995 36.5434 22.7835 56.5984 20.6095 80.5694L19.9195 88.1714H18.4195C14.2455 88.1714 17.2495 69.4964 23.4435 56.9314Z" fill="black"/>
<path fill-rule="evenodd" clip-rule="evenodd" d="M78.4195 31.2244C78.4195 28.6884 79.1665 26.8344 80.8745 25.1264C82.5695 23.4304 84.4405 22.6714 86.9215 22.6714H90.5145L92.9675 25.3174C94.5855 27.0644 95.4195 29.1374 95.4195 31.4164V34.8694L92.4195 37.6714L89.4195 40.4734V62.0724V83.6714H86.9195H84.4195V62.0724V40.4734L81.4195 37.6714L78.4195 34.8694V31.2244ZM84.1325 28.2924C82.9105 29.5144 83.3515 33.3694 84.8555 34.6184L86.2915 35.8104L88.4155 34.6734L90.5395 33.5364L90.2295 30.8544L89.9195 28.1714L87.3825 27.8754C85.9865 27.7124 84.5235 27.9004 84.1325 28.2924ZM103.83 47.3723C104.54 43.8204 106.085 41.7584 108.885 40.6234C111.869 39.4134 113.199 39.5054 116.361 41.1414C121.924 44.0174 122.283 51.2744 117.065 55.3794L114.56 57.3494L114.24 61.2603L113.92 65.1714L106.67 70.1044L99.4195 75.0363V81.9604V88.8834L101.92 90.8503L104.42 92.8163V96.6714V100.526L101.785 102.598C98.2895 105.348 94.8735 105.216 91.8745 102.216C88.5935 98.9364 88.6125 94.3244 91.9195 91.2594L94.4195 88.9424V81.8884C94.4195 78.0094 94.6975 74.1103 95.0375 73.2253C95.3765 72.3403 98.7515 69.6124 102.538 67.1644L109.42 62.7114V60.0734C109.42 58.5504 108.112 55.9454 106.324 53.9094L103.228 50.3824L103.83 47.3723ZM109.62 45.8714C107.82 47.6714 108.173 50.4694 110.348 51.6324C112.79 52.9394 115.165 52.0513 115.965 49.5313C117.15 45.7953 112.423 43.0684 109.62 45.8714ZM94.5645 94.9964C93.1635 96.6854 93.9535 99.2784 96.1235 100.111C98.2735 100.936 100.577 98.7694 100.218 96.2594C99.8605 93.7574 96.2595 92.9534 94.5645 94.9964ZM55.3425 42.5944C51.0815 46.8554 51.8685 53.5514 56.8995 55.8444L59.4195 56.9924V61.1854V65.3784L66.4195 70.0323L73.4195 74.6873V82.0644V89.4413L70.9195 91.0793L68.4195 92.7173V96.6214V100.526L71.0545 102.598C74.5495 105.348 77.9655 105.216 80.9645 102.216C84.2455 98.9364 84.2265 94.3244 80.9195 91.2594L78.4195 88.9424V80.8904V72.8394L74.6695 69.9354C72.6075 68.3384 69.2325 66.0134 67.1695 64.7694L63.4195 62.5084V59.7773C63.4195 57.9033 64.3605 56.3523 66.4195 54.8293L69.4195 52.6114V48.7304V44.8494L66.3425 42.2603C62.3105 38.8673 58.9675 38.9694 55.3425 42.5944ZM59.0035 51.7414C57.4045 50.4144 56.8545 46.5704 58.0865 45.3384C59.2395 44.1844 62.1255 44.6124 63.3795 46.1234C64.9135 47.9714 64.3995 50.6544 62.2535 52.0064L60.5875 53.0554L59.0035 51.7414ZM75.7815 99.6714C73.1955 99.6714 71.8365 97.6334 72.7815 95.1714C73.5015 93.2944 76.7985 93.2183 78.3145 95.0443C79.9925 97.0663 78.5665 99.6714 75.7815 99.6714Z" fill="black"/>
<path fill-rule="evenodd" clip-rule="evenodd" d="M71.4755 7.70638C75.5695 7.03838 79.5945 6.32738 80.4195 6.12838C81.2445 5.92838 86.4195 5.96636 91.9195 6.21236C136.076 8.18836 172.657 39.0534 181.965 82.1864C184.052 91.8584 184.369 114.402 182.541 123.171C176.181 153.684 155.935 179.25 128.92 190.881C122.477 193.655 118.42 195.03 118.42 194.439C118.42 194.237 122.735 191.858 128.01 189.151C152.776 176.442 169.867 155.965 178.07 129.171L180.825 120.171L180.731 105.171C180.627 88.5774 179.229 80.2304 174.521 68.1064C163.916 40.7954 139.514 19.2554 110.42 11.5254L101.92 9.26638H87.9195H73.9195L65.4195 11.5344C50.1495 15.6084 37.0045 22.7774 20.9195 35.8044L16.9195 39.0443L20.9195 34.7733C34.2055 20.5883 52.4695 10.8104 71.4755 7.70638Z" fill="black"/>
</svg>
