<svg width="200" height="200" viewBox="0 0 200 200" fill="none" xmlns="http://www.w3.org/2000/svg">
<path fill-rule="evenodd" clip-rule="evenodd" d="M50.5244 40.2325C52.3604 34.0505 58.9354 26.3065 64.4904 23.7825C70.0254 21.2695 76.1214 21.4505 85.4304 24.4045C90.3094 25.9525 95.6624 26.9045 99.4934 26.9045C103.464 26.9045 108.31 26.0095 113.029 24.4045C131.355 18.1715 144.863 24.2055 149.68 40.7755L151.286 46.3005L150.772 54.3525L150.258 62.4045L146.469 73.4045L142.679 84.4045L142.604 97.9045C142.563 105.329 143.066 115.545 143.723 120.607C145.761 136.309 142.546 155.532 136.871 161.572C134.042 164.583 132.268 164.523 130.83 161.366L129.674 158.828L131.819 150.116C135.098 136.797 135.229 134.531 133.648 118.404C132.27 104.351 132.496 97.3115 134.528 90.9085L135.133 89.0025L129.102 91.4535C125.785 92.8005 119.935 94.4415 116.102 95.0985L109.133 96.2935L113.157 100.658C117.482 105.35 120.972 112.017 121.007 115.654C121.044 119.49 119.665 118.115 116.029 110.693C113.867 106.279 111.111 102.414 108.818 100.583L105.108 97.6185L100.318 97.1795L95.5294 96.7405L90.8184 99.8905C88.2284 101.623 85.1534 104.585 83.9874 106.472C82.8204 108.36 81.4534 109.904 80.9474 109.904C78.2484 109.904 81.8264 103.042 86.5604 99.1395L90.1324 96.1945L84.7354 95.6375C81.7664 95.3315 76.0294 93.9305 71.9854 92.5245C67.9414 91.1175 64.4663 90.1345 64.2623 90.3385C64.0573 90.5425 64.4334 93.4695 65.0974 96.8425L66.3034 102.975L65.2023 112.69C63.7573 125.447 64.7564 131.853 71.0084 149.9C73.7694 157.872 76.0294 165.38 76.0294 166.584C76.0294 167.789 76.4974 170.006 77.0704 171.512L78.1113 174.25L79.5524 172.81C80.3444 172.017 81.4734 168.902 82.0604 165.886L83.1274 160.404L81.9324 144.904L80.7374 129.404L82.4224 122.904C84.4194 115.2 87.8973 109.565 92.3193 106.869C103.809 99.8635 111.619 110.617 123.935 150.404C126.148 157.554 129.27 165.471 130.872 167.997L133.785 172.589L137.907 174.239C140.185 175.15 142.029 176.562 142.029 177.396C142.029 179.379 140.433 179.27 135.292 176.937C129.299 174.216 125.803 168.124 120.354 150.904C113.41 128.955 108.3 116.591 104.427 112.363L101.032 108.656L99.4584 109.963C95.4474 113.292 92.0294 124.834 92.0294 135.047C92.0294 137.674 92.9574 146.37 94.0924 154.372C95.2264 162.375 96.0144 170.346 95.8424 172.086C95.4144 176.412 93.0294 177.074 93.0294 172.867C93.0294 171.105 92.0824 163.305 90.9244 155.534L88.8193 141.404L89.2504 131.374L89.6813 121.343L92.3704 115.471C93.8484 112.242 94.8863 109.428 94.6763 109.218C93.5723 108.114 87.8614 116.674 86.4404 121.564L84.7974 127.214L85.5194 146.481L86.2424 165.748L84.5324 170.894C83.3444 174.471 82.0564 176.39 80.3084 177.186L77.7944 178.332L75.8994 175.992C74.8564 174.704 73.7394 172.471 73.4164 171.028C71.5134 162.531 70.5964 160.71 65.0594 154.438C61.4764 150.38 58.2024 145.417 56.8774 142.038L54.6683 136.404L54.6804 125.404C54.6884 117.728 55.3474 111.547 56.8604 104.951C59.8764 91.8065 59.6884 88.2275 55.4804 78.6575C49.1154 64.1805 47.3884 50.7915 50.5244 40.2325ZM67.0294 26.4445C61.9794 28.7105 58.1154 32.6885 55.4124 38.4045L53.0494 43.4045L53.0394 51.1985C53.0274 60.5935 55.0653 69.2325 59.3453 77.9315L62.5294 84.4045L66.6644 86.6665C68.9384 87.9095 74.2984 89.8225 78.5744 90.9165L86.3494 92.9045L98.4393 92.8875C112.877 92.8665 122.206 91.0845 131.029 86.6625L137.529 83.4045L141.158 76.0805C151.88 54.4415 148.706 33.6575 133.632 26.8115C127.977 24.2435 124.581 24.4315 113.866 27.9045C102.489 31.5925 96.6894 31.6895 86.5024 28.3645C76.1334 24.9795 71.3474 24.5075 67.0294 26.4445ZM137.147 94.4045L135.774 100.404L136.652 111.904C138.306 133.586 137.722 141.717 133.441 156.654C132.291 160.666 135.043 159.126 137.017 154.654C140.198 147.444 141.385 137.615 140.543 125.446C140.123 119.373 139.496 108.554 139.15 101.404L138.52 88.4045L137.147 94.4045ZM59.6174 109.308C56.3314 127.804 58.3123 141.51 65.5093 150.063C68.6403 153.783 68.6403 153.339 65.5093 144.66C64.1233 140.818 62.5204 134.464 61.9474 130.539L60.9053 123.404L62.1334 112.12C63.7704 97.0755 62.1184 95.2295 59.6174 109.308Z" fill="black"/>
<path fill-rule="evenodd" clip-rule="evenodd" d="M64.0294 42.7795C64.0294 39.6935 65.8424 36.9895 69.3434 34.8545C74.4554 31.7375 85.0294 32.7655 85.0294 36.3795C85.0294 38.1795 84.6783 38.2125 79.8273 36.8655L76.1264 35.8375L72.5414 37.3345C70.0554 38.3735 68.4994 39.9285 67.4634 42.4085C65.9194 46.1025 64.0294 46.3065 64.0294 42.7795Z" fill="black"/>
</svg>
